<svg xmlns="http://www.w3.org/2000/svg" width="720" height="320" viewBox="0 0 720 320" font-family="Noto Sans, DejaVu Sans, Arial, sans-serif">
<rect x="0.0" y="0.0" width="720.0" height="320.0" fill="rgb(255,255,255)"/>
<text x="12.0" y="14.0" font-size="10.0" fill="rgb(17,24,39)" text-anchor="start" dominant-baseline="middle">Large language models — Частка переглядів теми, індекс (перші 12 міс. = 100). Тонка лінія — зі сплесками.</text>
<rect x="363.9" y="32.0" width="89.4" height="266.0" fill="rgb(243,244,246)"/>
<text x="408.7" y="38.0" font-size="6.0" fill="rgb(107,114,128)" text-anchor="middle" dominant-baseline="middle">перекласифікація ботів 2025</text>
<line x1="42.0" y1="298.0" x2="668.0" y2="298.0" stroke="rgb(229,231,235)" stroke-width="0.5" stroke-linecap="round"/>
<text x="38.0" y="298.0" font-size="7.0" fill="rgb(107,114,128)" text-anchor="end" dominant-baseline="middle">0</text>
<line x1="42.0" y1="253.7" x2="668.0" y2="253.7" stroke="rgb(229,231,235)" stroke-width="0.5" stroke-linecap="round"/>
<text x="38.0" y="253.7" font-size="7.0" fill="rgb(107,114,128)" text-anchor="end" dominant-baseline="middle">50</text>
<line x1="42.0" y1="209.3" x2="668.0" y2="209.3" stroke="rgb(229,231,235)" stroke-width="0.5" stroke-linecap="round"/>
<text x="38.0" y="209.3" font-size="7.0" fill="rgb(107,114,128)" text-anchor="end" dominant-baseline="middle">100</text>
<line x1="42.0" y1="165.0" x2="668.0" y2="165.0" stroke="rgb(229,231,235)" stroke-width="0.5" stroke-linecap="round"/>
<text x="38.0" y="165.0" font-size="7.0" fill="rgb(107,114,128)" text-anchor="end" dominant-baseline="middle">150</text>
<line x1="42.0" y1="120.7" x2="668.0" y2="120.7" stroke="rgb(229,231,235)" stroke-width="0.5" stroke-linecap="round"/>
<text x="38.0" y="120.7" font-size="7.0" fill="rgb(107,114,128)" text-anchor="end" dominant-baseline="middle">200</text>
<line x1="42.0" y1="76.3" x2="668.0" y2="76.3" stroke="rgb(229,231,235)" stroke-width="0.5" stroke-linecap="round"/>
<text x="38.0" y="76.3" font-size="7.0" fill="rgb(107,114,128)" text-anchor="end" dominant-baseline="middle">250</text>
<line x1="42.0" y1="32.0" x2="668.0" y2="32.0" stroke="rgb(229,231,235)" stroke-width="0.5" stroke-linecap="round"/>
<text x="38.0" y="32.0" font-size="7.0" fill="rgb(107,114,128)" text-anchor="end" dominant-baseline="middle">300</text>
<line x1="42.0" y1="209.3" x2="668.0" y2="209.3" stroke="rgb(107,114,128)" stroke-width="0.6" stroke-linecap="round"/>
<line x1="42.0" y1="298.0" x2="42.0" y2="301.0" stroke="rgb(107,114,128)" stroke-width="0.5" stroke-linecap="round"/>
<text x="42.0" y="307.0" font-size="6.5" fill="rgb(107,114,128)" text-anchor="middle" dominant-baseline="middle">2023-09</text>
<line x1="113.5" y1="298.0" x2="113.5" y2="301.0" stroke="rgb(107,114,128)" stroke-width="0.5" stroke-linecap="round"/>
<text x="113.5" y="307.0" font-size="6.5" fill="rgb(107,114,128)" text-anchor="middle" dominant-baseline="middle">2024-01</text>
<line x1="328.2" y1="298.0" x2="328.2" y2="301.0" stroke="rgb(107,114,128)" stroke-width="0.5" stroke-linecap="round"/>
<text x="328.2" y="307.0" font-size="6.5" fill="rgb(107,114,128)" text-anchor="middle" dominant-baseline="middle">2025-01</text>
<line x1="542.8" y1="298.0" x2="542.8" y2="301.0" stroke="rgb(107,114,128)" stroke-width="0.5" stroke-linecap="round"/>
<text x="542.8" y="307.0" font-size="6.5" fill="rgb(107,114,128)" text-anchor="middle" dominant-baseline="middle">2026-01</text>
<line x1="668.0" y1="298.0" x2="668.0" y2="301.0" stroke="rgb(107,114,128)" stroke-width="0.5" stroke-linecap="round"/>
<text x="668.0" y="307.0" font-size="6.5" fill="rgb(107,114,128)" text-anchor="middle" dominant-baseline="middle">2026-08</text>
<line x1="42.0" y1="258.6" x2="59.9" y2="252.7" stroke="rgb(182,203,248)" stroke-width="0.8" stroke-linecap="round"/>
<line x1="59.9" y1="252.7" x2="77.8" y2="238.6" stroke="rgb(182,203,248)" stroke-width="0.8" stroke-linecap="round"/>
<line x1="77.8" y1="238.6" x2="95.7" y2="217.8" stroke="rgb(182,203,248)" stroke-width="0.8" stroke-linecap="round"/>
<line x1="95.7" y1="217.8" x2="113.5" y2="209.3" stroke="rgb(182,203,248)" stroke-width="0.8" stroke-linecap="round"/>
<line x1="113.5" y1="209.3" x2="131.4" y2="202.6" stroke="rgb(182,203,248)" stroke-width="0.8" stroke-linecap="round"/>
<line x1="131.4" y1="202.6" x2="149.3" y2="190.1" stroke="rgb(182,203,248)" stroke-width="0.8" stroke-linecap="round"/>
<line x1="149.3" y1="190.1" x2="167.2" y2="200.3" stroke="rgb(182,203,248)" stroke-width="0.8" stroke-linecap="round"/>
<line x1="167.2" y1="200.3" x2="185.1" y2="175.5" stroke="rgb(182,203,248)" stroke-width="0.8" stroke-linecap="round"/>
<line x1="185.1" y1="175.5" x2="203.0" y2="164.9" stroke="rgb(182,203,248)" stroke-width="0.8" stroke-linecap="round"/>
<line x1="203.0" y1="164.9" x2="220.9" y2="200.5" stroke="rgb(182,203,248)" stroke-width="0.8" stroke-linecap="round"/>
<line x1="220.9" y1="200.5" x2="238.7" y2="196.3" stroke="rgb(182,203,248)" stroke-width="0.8" stroke-linecap="round"/>
<line x1="238.7" y1="196.3" x2="256.6" y2="192.0" stroke="rgb(182,203,248)" stroke-width="0.8" stroke-linecap="round"/>
<line x1="256.6" y1="192.0" x2="274.5" y2="179.9" stroke="rgb(182,203,248)" stroke-width="0.8" stroke-linecap="round"/>
<line x1="274.5" y1="179.9" x2="292.4" y2="185.2" stroke="rgb(182,203,248)" stroke-width="0.8" stroke-linecap="round"/>
<line x1="292.4" y1="185.2" x2="310.3" y2="190.5" stroke="rgb(182,203,248)" stroke-width="0.8" stroke-linecap="round"/>
<line x1="310.3" y1="190.5" x2="328.2" y2="156.3" stroke="rgb(182,203,248)" stroke-width="0.8" stroke-linecap="round"/>
<line x1="328.2" y1="156.3" x2="346.1" y2="101.4" stroke="rgb(182,203,248)" stroke-width="0.8" stroke-linecap="round"/>
<line x1="346.1" y1="101.4" x2="363.9" y2="146.2" stroke="rgb(182,203,248)" stroke-width="0.8" stroke-linecap="round"/>
<line x1="363.9" y1="146.2" x2="381.8" y2="64.7" stroke="rgb(182,203,248)" stroke-width="0.8" stroke-linecap="round"/>
<line x1="381.8" y1="64.7" x2="399.7" y2="91.5" stroke="rgb(182,203,248)" stroke-width="0.8" stroke-linecap="round"/>
<line x1="399.7" y1="91.5" x2="417.6" y2="94.7" stroke="rgb(182,203,248)" stroke-width="0.8" stroke-linecap="round"/>
<line x1="417.6" y1="94.7" x2="435.5" y2="132.8" stroke="rgb(182,203,248)" stroke-width="0.8" stroke-linecap="round"/>
<line x1="435.5" y1="132.8" x2="453.4" y2="146.6" stroke="rgb(182,203,248)" stroke-width="0.8" stroke-linecap="round"/>
<line x1="453.4" y1="146.6" x2="471.3" y2="116.6" stroke="rgb(182,203,248)" stroke-width="0.8" stroke-linecap="round"/>
<line x1="471.3" y1="116.6" x2="489.1" y2="142.4" stroke="rgb(182,203,248)" stroke-width="0.8" stroke-linecap="round"/>
<line x1="489.1" y1="142.4" x2="507.0" y2="149.3" stroke="rgb(182,203,248)" stroke-width="0.8" stroke-linecap="round"/>
<line x1="507.0" y1="149.3" x2="524.9" y2="153.6" stroke="rgb(182,203,248)" stroke-width="0.8" stroke-linecap="round"/>
<line x1="524.9" y1="153.6" x2="542.8" y2="177.6" stroke="rgb(182,203,248)" stroke-width="0.8" stroke-linecap="round"/>
<line x1="542.8" y1="177.6" x2="560.7" y2="133.1" stroke="rgb(182,203,248)" stroke-width="0.8" stroke-linecap="round"/>
<line x1="560.7" y1="133.1" x2="578.6" y2="62.1" stroke="rgb(182,203,248)" stroke-width="0.8" stroke-linecap="round"/>
<line x1="578.6" y1="62.1" x2="596.5" y2="137.1" stroke="rgb(182,203,248)" stroke-width="0.8" stroke-linecap="round"/>
<line x1="596.5" y1="137.1" x2="614.3" y2="161.4" stroke="rgb(182,203,248)" stroke-width="0.8" stroke-linecap="round"/>
<line x1="614.3" y1="161.4" x2="632.2" y2="182.2" stroke="rgb(182,203,248)" stroke-width="0.8" stroke-linecap="round"/>
<line x1="632.2" y1="182.2" x2="650.1" y2="196.6" stroke="rgb(182,203,248)" stroke-width="0.8" stroke-linecap="round"/>
<line x1="650.1" y1="196.6" x2="668.0" y2="210.4" stroke="rgb(182,203,248)" stroke-width="0.8" stroke-linecap="round"/>
<line x1="42.0" y1="258.6" x2="59.9" y2="252.7" stroke="rgb(37,99,235)" stroke-width="1.8" stroke-linecap="round"/>
<line x1="59.9" y1="252.7" x2="77.8" y2="239.3" stroke="rgb(37,99,235)" stroke-width="1.8" stroke-linecap="round"/>
<line x1="77.8" y1="239.3" x2="95.7" y2="217.8" stroke="rgb(37,99,235)" stroke-width="1.8" stroke-linecap="round"/>
<line x1="95.7" y1="217.8" x2="113.5" y2="210.6" stroke="rgb(37,99,235)" stroke-width="1.8" stroke-linecap="round"/>
<line x1="113.5" y1="210.6" x2="131.4" y2="202.6" stroke="rgb(37,99,235)" stroke-width="1.8" stroke-linecap="round"/>
<line x1="131.4" y1="202.6" x2="149.3" y2="190.1" stroke="rgb(37,99,235)" stroke-width="1.8" stroke-linecap="round"/>
<line x1="149.3" y1="190.1" x2="167.2" y2="200.3" stroke="rgb(37,99,235)" stroke-width="1.8" stroke-linecap="round"/>
<line x1="167.2" y1="200.3" x2="185.1" y2="171.9" stroke="rgb(37,99,235)" stroke-width="1.8" stroke-linecap="round"/>
<line x1="185.1" y1="171.9" x2="203.0" y2="164.9" stroke="rgb(37,99,235)" stroke-width="1.8" stroke-linecap="round"/>
<line x1="203.0" y1="164.9" x2="220.9" y2="203.3" stroke="rgb(37,99,235)" stroke-width="1.8" stroke-linecap="round"/>
<line x1="220.9" y1="203.3" x2="238.7" y2="199.8" stroke="rgb(37,99,235)" stroke-width="1.8" stroke-linecap="round"/>
<line x1="238.7" y1="199.8" x2="256.6" y2="192.0" stroke="rgb(37,99,235)" stroke-width="1.8" stroke-linecap="round"/>
<line x1="256.6" y1="192.0" x2="274.5" y2="177.3" stroke="rgb(37,99,235)" stroke-width="1.8" stroke-linecap="round"/>
<line x1="274.5" y1="177.3" x2="292.4" y2="183.0" stroke="rgb(37,99,235)" stroke-width="1.8" stroke-linecap="round"/>
<line x1="292.4" y1="183.0" x2="310.3" y2="194.3" stroke="rgb(37,99,235)" stroke-width="1.8" stroke-linecap="round"/>
<line x1="310.3" y1="194.3" x2="328.2" y2="154.1" stroke="rgb(37,99,235)" stroke-width="1.8" stroke-linecap="round"/>
<line x1="328.2" y1="154.1" x2="346.1" y2="101.4" stroke="rgb(37,99,235)" stroke-width="1.8" stroke-linecap="round"/>
<line x1="346.1" y1="101.4" x2="363.9" y2="151.5" stroke="rgb(37,99,235)" stroke-width="1.8" stroke-linecap="round"/>
<line x1="363.9" y1="151.5" x2="381.8" y2="72.9" stroke="rgb(37,99,235)" stroke-width="1.8" stroke-linecap="round"/>
<line x1="381.8" y1="72.9" x2="399.7" y2="91.5" stroke="rgb(37,99,235)" stroke-width="1.8" stroke-linecap="round"/>
<line x1="399.7" y1="91.5" x2="417.6" y2="95.2" stroke="rgb(37,99,235)" stroke-width="1.8" stroke-linecap="round"/>
<line x1="417.6" y1="95.2" x2="435.5" y2="132.8" stroke="rgb(37,99,235)" stroke-width="1.8" stroke-linecap="round"/>
<line x1="435.5" y1="132.8" x2="453.4" y2="143.3" stroke="rgb(37,99,235)" stroke-width="1.8" stroke-linecap="round"/>
<line x1="453.4" y1="143.3" x2="471.3" y2="116.6" stroke="rgb(37,99,235)" stroke-width="1.8" stroke-linecap="round"/>
<line x1="471.3" y1="116.6" x2="489.1" y2="142.4" stroke="rgb(37,99,235)" stroke-width="1.8" stroke-linecap="round"/>
<line x1="489.1" y1="142.4" x2="507.0" y2="147.0" stroke="rgb(37,99,235)" stroke-width="1.8" stroke-linecap="round"/>
<line x1="507.0" y1="147.0" x2="524.9" y2="153.6" stroke="rgb(37,99,235)" stroke-width="1.8" stroke-linecap="round"/>
<line x1="524.9" y1="153.6" x2="542.8" y2="174.4" stroke="rgb(37,99,235)" stroke-width="1.8" stroke-linecap="round"/>
<line x1="542.8" y1="174.4" x2="560.7" y2="133.1" stroke="rgb(37,99,235)" stroke-width="1.8" stroke-linecap="round"/>
<line x1="560.7" y1="133.1" x2="578.6" y2="90.6" stroke="rgb(37,99,235)" stroke-width="1.8" stroke-linecap="round"/>
<line x1="578.6" y1="90.6" x2="596.5" y2="139.3" stroke="rgb(37,99,235)" stroke-width="1.8" stroke-linecap="round"/>
<line x1="596.5" y1="139.3" x2="614.3" y2="163.5" stroke="rgb(37,99,235)" stroke-width="1.8" stroke-linecap="round"/>
<line x1="614.3" y1="163.5" x2="632.2" y2="182.2" stroke="rgb(37,99,235)" stroke-width="1.8" stroke-linecap="round"/>
<line x1="632.2" y1="182.2" x2="650.1" y2="205.3" stroke="rgb(37,99,235)" stroke-width="1.8" stroke-linecap="round"/>
<line x1="650.1" y1="205.3" x2="668.0" y2="210.4" stroke="rgb(37,99,235)" stroke-width="1.8" stroke-linecap="round"/>
<line x1="185.1" y1="251.6" x2="203.0" y2="243.2" stroke="rgb(243,182,182)" stroke-width="0.8" stroke-linecap="round"/>
<line x1="203.0" y1="243.2" x2="220.9" y2="254.2" stroke="rgb(243,182,182)" stroke-width="0.8" stroke-linecap="round"/>
<line x1="220.9" y1="254.2" x2="238.7" y2="252.3" stroke="rgb(243,182,182)" stroke-width="0.8" stroke-linecap="round"/>
<line x1="238.7" y1="252.3" x2="256.6" y2="230.9" stroke="rgb(243,182,182)" stroke-width="0.8" stroke-linecap="round"/>
<line x1="256.6" y1="230.9" x2="274.5" y2="203.9" stroke="rgb(243,182,182)" stroke-width="0.8" stroke-linecap="round"/>
<line x1="274.5" y1="203.9" x2="292.4" y2="217.2" stroke="rgb(243,182,182)" stroke-width="0.8" stroke-linecap="round"/>
<line x1="292.4" y1="217.2" x2="310.3" y2="208.7" stroke="rgb(243,182,182)" stroke-width="0.8" stroke-linecap="round"/>
<line x1="310.3" y1="208.7" x2="328.2" y2="169.0" stroke="rgb(243,182,182)" stroke-width="0.8" stroke-linecap="round"/>
<line x1="328.2" y1="169.0" x2="346.1" y2="161.4" stroke="rgb(243,182,182)" stroke-width="0.8" stroke-linecap="round"/>
<line x1="346.1" y1="161.4" x2="363.9" y2="170.8" stroke="rgb(243,182,182)" stroke-width="0.8" stroke-linecap="round"/>
<line x1="363.9" y1="170.8" x2="381.8" y2="155.2" stroke="rgb(243,182,182)" stroke-width="0.8" stroke-linecap="round"/>
<line x1="381.8" y1="155.2" x2="399.7" y2="135.7" stroke="rgb(243,182,182)" stroke-width="0.8" stroke-linecap="round"/>
<line x1="399.7" y1="135.7" x2="417.6" y2="166.0" stroke="rgb(243,182,182)" stroke-width="0.8" stroke-linecap="round"/>
<line x1="417.6" y1="166.0" x2="435.5" y2="175.1" stroke="rgb(243,182,182)" stroke-width="0.8" stroke-linecap="round"/>
<line x1="435.5" y1="175.1" x2="453.4" y2="189.3" stroke="rgb(243,182,182)" stroke-width="0.8" stroke-linecap="round"/>
<line x1="453.4" y1="189.3" x2="471.3" y2="181.6" stroke="rgb(243,182,182)" stroke-width="0.8" stroke-linecap="round"/>
<line x1="471.3" y1="181.6" x2="489.1" y2="160.5" stroke="rgb(243,182,182)" stroke-width="0.8" stroke-linecap="round"/>
<line x1="489.1" y1="160.5" x2="507.0" y2="180.2" stroke="rgb(243,182,182)" stroke-width="0.8" stroke-linecap="round"/>
<line x1="507.0" y1="180.2" x2="524.9" y2="158.0" stroke="rgb(243,182,182)" stroke-width="0.8" stroke-linecap="round"/>
<line x1="524.9" y1="158.0" x2="542.8" y2="163.5" stroke="rgb(243,182,182)" stroke-width="0.8" stroke-linecap="round"/>
<line x1="542.8" y1="163.5" x2="560.7" y2="174.6" stroke="rgb(243,182,182)" stroke-width="0.8" stroke-linecap="round"/>
<line x1="560.7" y1="174.6" x2="578.6" y2="158.1" stroke="rgb(243,182,182)" stroke-width="0.8" stroke-linecap="round"/>
<line x1="578.6" y1="158.1" x2="596.5" y2="159.6" stroke="rgb(243,182,182)" stroke-width="0.8" stroke-linecap="round"/>
<line x1="596.5" y1="159.6" x2="614.3" y2="116.7" stroke="rgb(243,182,182)" stroke-width="0.8" stroke-linecap="round"/>
<line x1="614.3" y1="116.7" x2="632.2" y2="146.1" stroke="rgb(243,182,182)" stroke-width="0.8" stroke-linecap="round"/>
<line x1="632.2" y1="146.1" x2="650.1" y2="130.4" stroke="rgb(243,182,182)" stroke-width="0.8" stroke-linecap="round"/>
<line x1="650.1" y1="130.4" x2="668.0" y2="155.7" stroke="rgb(243,182,182)" stroke-width="0.8" stroke-linecap="round"/>
<line x1="185.1" y1="251.9" x2="203.0" y2="243.2" stroke="rgb(220,38,38)" stroke-width="1.8" stroke-linecap="round"/>
<line x1="203.0" y1="243.2" x2="220.9" y2="252.9" stroke="rgb(220,38,38)" stroke-width="1.8" stroke-linecap="round"/>
<line x1="220.9" y1="252.9" x2="238.7" y2="251.5" stroke="rgb(220,38,38)" stroke-width="1.8" stroke-linecap="round"/>
<line x1="238.7" y1="251.5" x2="256.6" y2="230.9" stroke="rgb(220,38,38)" stroke-width="1.8" stroke-linecap="round"/>
<line x1="256.6" y1="230.9" x2="274.5" y2="202.0" stroke="rgb(220,38,38)" stroke-width="1.8" stroke-linecap="round"/>
<line x1="274.5" y1="202.0" x2="292.4" y2="216.8" stroke="rgb(220,38,38)" stroke-width="1.8" stroke-linecap="round"/>
<line x1="292.4" y1="216.8" x2="310.3" y2="208.7" stroke="rgb(220,38,38)" stroke-width="1.8" stroke-linecap="round"/>
<line x1="310.3" y1="208.7" x2="328.2" y2="170.3" stroke="rgb(220,38,38)" stroke-width="1.8" stroke-linecap="round"/>
<line x1="328.2" y1="170.3" x2="346.1" y2="161.4" stroke="rgb(220,38,38)" stroke-width="1.8" stroke-linecap="round"/>
<line x1="346.1" y1="161.4" x2="363.9" y2="168.5" stroke="rgb(220,38,38)" stroke-width="1.8" stroke-linecap="round"/>
<line x1="363.9" y1="168.5" x2="381.8" y2="153.8" stroke="rgb(220,38,38)" stroke-width="1.8" stroke-linecap="round"/>
<line x1="381.8" y1="153.8" x2="399.7" y2="173.3" stroke="rgb(220,38,38)" stroke-width="1.8" stroke-linecap="round"/>
<line x1="399.7" y1="173.3" x2="417.6" y2="163.5" stroke="rgb(220,38,38)" stroke-width="1.8" stroke-linecap="round"/>
<line x1="417.6" y1="163.5" x2="435.5" y2="175.2" stroke="rgb(220,38,38)" stroke-width="1.8" stroke-linecap="round"/>
<line x1="435.5" y1="175.2" x2="453.4" y2="190.1" stroke="rgb(220,38,38)" stroke-width="1.8" stroke-linecap="round"/>
<line x1="453.4" y1="190.1" x2="471.3" y2="180.7" stroke="rgb(220,38,38)" stroke-width="1.8" stroke-linecap="round"/>
<line x1="471.3" y1="180.7" x2="489.1" y2="158.1" stroke="rgb(220,38,38)" stroke-width="1.8" stroke-linecap="round"/>
<line x1="489.1" y1="158.1" x2="507.0" y2="180.2" stroke="rgb(220,38,38)" stroke-width="1.8" stroke-linecap="round"/>
<line x1="507.0" y1="180.2" x2="524.9" y2="160.4" stroke="rgb(220,38,38)" stroke-width="1.8" stroke-linecap="round"/>
<line x1="524.9" y1="160.4" x2="542.8" y2="162.0" stroke="rgb(220,38,38)" stroke-width="1.8" stroke-linecap="round"/>
<line x1="542.8" y1="162.0" x2="560.7" y2="180.2" stroke="rgb(220,38,38)" stroke-width="1.8" stroke-linecap="round"/>
<line x1="560.7" y1="180.2" x2="578.6" y2="158.1" stroke="rgb(220,38,38)" stroke-width="1.8" stroke-linecap="round"/>
<line x1="578.6" y1="158.1" x2="596.5" y2="158.1" stroke="rgb(220,38,38)" stroke-width="1.8" stroke-linecap="round"/>
<line x1="596.5" y1="158.1" x2="614.3" y2="119.3" stroke="rgb(220,38,38)" stroke-width="1.8" stroke-linecap="round"/>
<line x1="614.3" y1="119.3" x2="632.2" y2="149.6" stroke="rgb(220,38,38)" stroke-width="1.8" stroke-linecap="round"/>
<line x1="632.2" y1="149.6" x2="650.1" y2="160.5" stroke="rgb(220,38,38)" stroke-width="1.8" stroke-linecap="round"/>
<line x1="650.1" y1="160.5" x2="668.0" y2="160.9" stroke="rgb(220,38,38)" stroke-width="1.8" stroke-linecap="round"/>
<line x1="113.5" y1="276.0" x2="131.4" y2="243.6" stroke="rgb(177,224,194)" stroke-width="0.8" stroke-linecap="round"/>
<line x1="131.4" y1="243.6" x2="149.3" y2="230.9" stroke="rgb(177,224,194)" stroke-width="0.8" stroke-linecap="round"/>
<line x1="149.3" y1="230.9" x2="167.2" y2="224.6" stroke="rgb(177,224,194)" stroke-width="0.8" stroke-linecap="round"/>
<line x1="167.2" y1="224.6" x2="185.1" y2="206.4" stroke="rgb(177,224,194)" stroke-width="0.8" stroke-linecap="round"/>
<line x1="185.1" y1="206.4" x2="203.0" y2="175.9" stroke="rgb(177,224,194)" stroke-width="0.8" stroke-linecap="round"/>
<line x1="203.0" y1="175.9" x2="220.9" y2="184.9" stroke="rgb(177,224,194)" stroke-width="0.8" stroke-linecap="round"/>
<line x1="220.9" y1="184.9" x2="238.7" y2="214.9" stroke="rgb(177,224,194)" stroke-width="0.8" stroke-linecap="round"/>
<line x1="238.7" y1="214.9" x2="256.6" y2="198.4" stroke="rgb(177,224,194)" stroke-width="0.8" stroke-linecap="round"/>
<line x1="256.6" y1="198.4" x2="274.5" y2="193.7" stroke="rgb(177,224,194)" stroke-width="0.8" stroke-linecap="round"/>
<line x1="274.5" y1="193.7" x2="292.4" y2="190.3" stroke="rgb(177,224,194)" stroke-width="0.8" stroke-linecap="round"/>
<line x1="292.4" y1="190.3" x2="310.3" y2="207.5" stroke="rgb(177,224,194)" stroke-width="0.8" stroke-linecap="round"/>
<line x1="310.3" y1="207.5" x2="328.2" y2="162.1" stroke="rgb(177,224,194)" stroke-width="0.8" stroke-linecap="round"/>
<line x1="328.2" y1="162.1" x2="346.1" y2="164.6" stroke="rgb(177,224,194)" stroke-width="0.8" stroke-linecap="round"/>
<line x1="346.1" y1="164.6" x2="363.9" y2="185.8" stroke="rgb(177,224,194)" stroke-width="0.8" stroke-linecap="round"/>
<line x1="363.9" y1="185.8" x2="381.8" y2="189.8" stroke="rgb(177,224,194)" stroke-width="0.8" stroke-linecap="round"/>
<line x1="381.8" y1="189.8" x2="399.7" y2="191.8" stroke="rgb(177,224,194)" stroke-width="0.8" stroke-linecap="round"/>
<line x1="399.7" y1="191.8" x2="417.6" y2="184.6" stroke="rgb(177,224,194)" stroke-width="0.8" stroke-linecap="round"/>
<line x1="417.6" y1="184.6" x2="435.5" y2="184.0" stroke="rgb(177,224,194)" stroke-width="0.8" stroke-linecap="round"/>
<line x1="435.5" y1="184.0" x2="453.4" y2="187.8" stroke="rgb(177,224,194)" stroke-width="0.8" stroke-linecap="round"/>
<line x1="453.4" y1="187.8" x2="471.3" y2="178.7" stroke="rgb(177,224,194)" stroke-width="0.8" stroke-linecap="round"/>
<line x1="471.3" y1="178.7" x2="489.1" y2="171.7" stroke="rgb(177,224,194)" stroke-width="0.8" stroke-linecap="round"/>
<line x1="489.1" y1="171.7" x2="507.0" y2="165.9" stroke="rgb(177,224,194)" stroke-width="0.8" stroke-linecap="round"/>
<line x1="507.0" y1="165.9" x2="524.9" y2="183.4" stroke="rgb(177,224,194)" stroke-width="0.8" stroke-linecap="round"/>
<line x1="524.9" y1="183.4" x2="542.8" y2="181.1" stroke="rgb(177,224,194)" stroke-width="0.8" stroke-linecap="round"/>
<line x1="542.8" y1="181.1" x2="560.7" y2="149.5" stroke="rgb(177,224,194)" stroke-width="0.8" stroke-linecap="round"/>
<line x1="560.7" y1="149.5" x2="578.6" y2="159.4" stroke="rgb(177,224,194)" stroke-width="0.8" stroke-linecap="round"/>
<line x1="578.6" y1="159.4" x2="596.5" y2="149.8" stroke="rgb(177,224,194)" stroke-width="0.8" stroke-linecap="round"/>
<line x1="596.5" y1="149.8" x2="614.3" y2="152.3" stroke="rgb(177,224,194)" stroke-width="0.8" stroke-linecap="round"/>
<line x1="614.3" y1="152.3" x2="632.2" y2="128.6" stroke="rgb(177,224,194)" stroke-width="0.8" stroke-linecap="round"/>
<line x1="632.2" y1="128.6" x2="650.1" y2="152.5" stroke="rgb(177,224,194)" stroke-width="0.8" stroke-linecap="round"/>
<line x1="650.1" y1="152.5" x2="668.0" y2="163.4" stroke="rgb(177,224,194)" stroke-width="0.8" stroke-linecap="round"/>
<line x1="113.5" y1="275.3" x2="131.4" y2="241.7" stroke="rgb(22,163,74)" stroke-width="1.8" stroke-linecap="round"/>
<line x1="131.4" y1="241.7" x2="149.3" y2="227.1" stroke="rgb(22,163,74)" stroke-width="1.8" stroke-linecap="round"/>
<line x1="149.3" y1="227.1" x2="167.2" y2="221.8" stroke="rgb(22,163,74)" stroke-width="1.8" stroke-linecap="round"/>
<line x1="167.2" y1="221.8" x2="185.1" y2="207.8" stroke="rgb(22,163,74)" stroke-width="1.8" stroke-linecap="round"/>
<line x1="185.1" y1="207.8" x2="203.0" y2="174.0" stroke="rgb(22,163,74)" stroke-width="1.8" stroke-linecap="round"/>
<line x1="203.0" y1="174.0" x2="220.9" y2="178.4" stroke="rgb(22,163,74)" stroke-width="1.8" stroke-linecap="round"/>
<line x1="220.9" y1="178.4" x2="238.7" y2="209.7" stroke="rgb(22,163,74)" stroke-width="1.8" stroke-linecap="round"/>
<line x1="238.7" y1="209.7" x2="256.6" y2="196.0" stroke="rgb(22,163,74)" stroke-width="1.8" stroke-linecap="round"/>
<line x1="256.6" y1="196.0" x2="274.5" y2="189.0" stroke="rgb(22,163,74)" stroke-width="1.8" stroke-linecap="round"/>
<line x1="274.5" y1="189.0" x2="292.4" y2="183.8" stroke="rgb(22,163,74)" stroke-width="1.8" stroke-linecap="round"/>
<line x1="292.4" y1="183.8" x2="310.3" y2="207.5" stroke="rgb(22,163,74)" stroke-width="1.8" stroke-linecap="round"/>
<line x1="310.3" y1="207.5" x2="328.2" y2="162.1" stroke="rgb(22,163,74)" stroke-width="1.8" stroke-linecap="round"/>
<line x1="328.2" y1="162.1" x2="346.1" y2="164.6" stroke="rgb(22,163,74)" stroke-width="1.8" stroke-linecap="round"/>
<line x1="346.1" y1="164.6" x2="363.9" y2="180.0" stroke="rgb(22,163,74)" stroke-width="1.8" stroke-linecap="round"/>
<line x1="363.9" y1="180.0" x2="381.8" y2="183.7" stroke="rgb(22,163,74)" stroke-width="1.8" stroke-linecap="round"/>
<line x1="381.8" y1="183.7" x2="399.7" y2="189.8" stroke="rgb(22,163,74)" stroke-width="1.8" stroke-linecap="round"/>
<line x1="399.7" y1="189.8" x2="417.6" y2="184.6" stroke="rgb(22,163,74)" stroke-width="1.8" stroke-linecap="round"/>
<line x1="417.6" y1="184.6" x2="435.5" y2="184.0" stroke="rgb(22,163,74)" stroke-width="1.8" stroke-linecap="round"/>
<line x1="435.5" y1="184.0" x2="453.4" y2="185.2" stroke="rgb(22,163,74)" stroke-width="1.8" stroke-linecap="round"/>
<line x1="453.4" y1="185.2" x2="471.3" y2="170.8" stroke="rgb(22,163,74)" stroke-width="1.8" stroke-linecap="round"/>
<line x1="471.3" y1="170.8" x2="489.1" y2="169.2" stroke="rgb(22,163,74)" stroke-width="1.8" stroke-linecap="round"/>
<line x1="489.1" y1="169.2" x2="507.0" y2="165.9" stroke="rgb(22,163,74)" stroke-width="1.8" stroke-linecap="round"/>
<line x1="507.0" y1="165.9" x2="524.9" y2="180.0" stroke="rgb(22,163,74)" stroke-width="1.8" stroke-linecap="round"/>
<line x1="524.9" y1="180.0" x2="542.8" y2="177.1" stroke="rgb(22,163,74)" stroke-width="1.8" stroke-linecap="round"/>
<line x1="542.8" y1="177.1" x2="560.7" y2="147.7" stroke="rgb(22,163,74)" stroke-width="1.8" stroke-linecap="round"/>
<line x1="560.7" y1="147.7" x2="578.6" y2="157.3" stroke="rgb(22,163,74)" stroke-width="1.8" stroke-linecap="round"/>
<line x1="578.6" y1="157.3" x2="596.5" y2="145.2" stroke="rgb(22,163,74)" stroke-width="1.8" stroke-linecap="round"/>
<line x1="596.5" y1="145.2" x2="614.3" y2="147.8" stroke="rgb(22,163,74)" stroke-width="1.8" stroke-linecap="round"/>
<line x1="614.3" y1="147.8" x2="632.2" y2="128.6" stroke="rgb(22,163,74)" stroke-width="1.8" stroke-linecap="round"/>
<line x1="632.2" y1="128.6" x2="650.1" y2="150.5" stroke="rgb(22,163,74)" stroke-width="1.8" stroke-linecap="round"/>
<line x1="650.1" y1="150.5" x2="668.0" y2="159.4" stroke="rgb(22,163,74)" stroke-width="1.8" stroke-linecap="round"/>
<text x="673.0" y="210.4" font-size="8.0" fill="rgb(37,99,235)" text-anchor="start" dominant-baseline="middle">uk</text>
<text x="673.0" y="160.9" font-size="8.0" fill="rgb(220,38,38)" text-anchor="start" dominant-baseline="middle">pl</text>
<text x="673.0" y="169.9" font-size="8.0" fill="rgb(22,163,74)" text-anchor="start" dominant-baseline="middle">de</text>
</svg>
