<svg xmlns="http://www.w3.org/2000/svg" width="720" height="320" viewBox="0 0 720 320" font-family="Noto Sans, DejaVu Sans, Arial, sans-serif">
<rect x="0.0" y="0.0" width="720.0" height="320.0" fill="rgb(255,255,255)"/>
<text x="12.0" y="14.0" font-size="10.0" fill="rgb(17,24,39)" text-anchor="start" dominant-baseline="middle">astronomy — Частка переглядів теми, індекс (перші 12 міс. = 100). Тонка лінія — зі сплесками.</text>
<rect x="363.9" y="32.0" width="89.4" height="266.0" fill="rgb(243,244,246)"/>
<text x="408.7" y="38.0" font-size="6.0" fill="rgb(107,114,128)" text-anchor="middle" dominant-baseline="middle">перекласифікація ботів 2025</text>
<line x1="42.0" y1="298.0" x2="668.0" y2="298.0" stroke="rgb(229,231,235)" stroke-width="0.5" stroke-linecap="round"/>
<text x="38.0" y="298.0" font-size="7.0" fill="rgb(107,114,128)" text-anchor="end" dominant-baseline="middle">0</text>
<line x1="42.0" y1="231.5" x2="668.0" y2="231.5" stroke="rgb(229,231,235)" stroke-width="0.5" stroke-linecap="round"/>
<text x="38.0" y="231.5" font-size="7.0" fill="rgb(107,114,128)" text-anchor="end" dominant-baseline="middle">100</text>
<line x1="42.0" y1="165.0" x2="668.0" y2="165.0" stroke="rgb(229,231,235)" stroke-width="0.5" stroke-linecap="round"/>
<text x="38.0" y="165.0" font-size="7.0" fill="rgb(107,114,128)" text-anchor="end" dominant-baseline="middle">200</text>
<line x1="42.0" y1="98.5" x2="668.0" y2="98.5" stroke="rgb(229,231,235)" stroke-width="0.5" stroke-linecap="round"/>
<text x="38.0" y="98.5" font-size="7.0" fill="rgb(107,114,128)" text-anchor="end" dominant-baseline="middle">300</text>
<line x1="42.0" y1="32.0" x2="668.0" y2="32.0" stroke="rgb(229,231,235)" stroke-width="0.5" stroke-linecap="round"/>
<text x="38.0" y="32.0" font-size="7.0" fill="rgb(107,114,128)" text-anchor="end" dominant-baseline="middle">400</text>
<line x1="42.0" y1="231.5" x2="668.0" y2="231.5" stroke="rgb(107,114,128)" stroke-width="0.6" stroke-linecap="round"/>
<line x1="42.0" y1="298.0" x2="42.0" y2="301.0" stroke="rgb(107,114,128)" stroke-width="0.5" stroke-linecap="round"/>
<text x="42.0" y="307.0" font-size="6.5" fill="rgb(107,114,128)" text-anchor="middle" dominant-baseline="middle">2023-09</text>
<line x1="113.5" y1="298.0" x2="113.5" y2="301.0" stroke="rgb(107,114,128)" stroke-width="0.5" stroke-linecap="round"/>
<text x="113.5" y="307.0" font-size="6.5" fill="rgb(107,114,128)" text-anchor="middle" dominant-baseline="middle">2024-01</text>
<line x1="328.2" y1="298.0" x2="328.2" y2="301.0" stroke="rgb(107,114,128)" stroke-width="0.5" stroke-linecap="round"/>
<text x="328.2" y="307.0" font-size="6.5" fill="rgb(107,114,128)" text-anchor="middle" dominant-baseline="middle">2025-01</text>
<line x1="542.8" y1="298.0" x2="542.8" y2="301.0" stroke="rgb(107,114,128)" stroke-width="0.5" stroke-linecap="round"/>
<text x="542.8" y="307.0" font-size="6.5" fill="rgb(107,114,128)" text-anchor="middle" dominant-baseline="middle">2026-01</text>
<line x1="668.0" y1="298.0" x2="668.0" y2="301.0" stroke="rgb(107,114,128)" stroke-width="0.5" stroke-linecap="round"/>
<text x="668.0" y="307.0" font-size="6.5" fill="rgb(107,114,128)" text-anchor="middle" dominant-baseline="middle">2026-08</text>
<line x1="42.0" y1="75.1" x2="59.9" y2="226.1" stroke="rgb(182,203,248)" stroke-width="0.8" stroke-linecap="round"/>
<line x1="59.9" y1="226.1" x2="77.8" y2="230.1" stroke="rgb(182,203,248)" stroke-width="0.8" stroke-linecap="round"/>
<line x1="77.8" y1="230.1" x2="95.7" y2="225.0" stroke="rgb(182,203,248)" stroke-width="0.8" stroke-linecap="round"/>
<line x1="95.7" y1="225.0" x2="113.5" y2="229.7" stroke="rgb(182,203,248)" stroke-width="0.8" stroke-linecap="round"/>
<line x1="113.5" y1="229.7" x2="131.4" y2="233.4" stroke="rgb(182,203,248)" stroke-width="0.8" stroke-linecap="round"/>
<line x1="131.4" y1="233.4" x2="149.3" y2="253.4" stroke="rgb(182,203,248)" stroke-width="0.8" stroke-linecap="round"/>
<line x1="149.3" y1="253.4" x2="167.2" y2="249.2" stroke="rgb(182,203,248)" stroke-width="0.8" stroke-linecap="round"/>
<line x1="167.2" y1="249.2" x2="185.1" y2="251.8" stroke="rgb(182,203,248)" stroke-width="0.8" stroke-linecap="round"/>
<line x1="185.1" y1="251.8" x2="203.0" y2="265.8" stroke="rgb(182,203,248)" stroke-width="0.8" stroke-linecap="round"/>
<line x1="203.0" y1="265.8" x2="220.9" y2="275.3" stroke="rgb(182,203,248)" stroke-width="0.8" stroke-linecap="round"/>
<line x1="220.9" y1="275.3" x2="238.7" y2="273.7" stroke="rgb(182,203,248)" stroke-width="0.8" stroke-linecap="round"/>
<line x1="238.7" y1="273.7" x2="256.6" y2="164.1" stroke="rgb(182,203,248)" stroke-width="0.8" stroke-linecap="round"/>
<line x1="256.6" y1="164.1" x2="274.5" y2="252.4" stroke="rgb(182,203,248)" stroke-width="0.8" stroke-linecap="round"/>
<line x1="274.5" y1="252.4" x2="292.4" y2="253.7" stroke="rgb(182,203,248)" stroke-width="0.8" stroke-linecap="round"/>
<line x1="292.4" y1="253.7" x2="310.3" y2="256.8" stroke="rgb(182,203,248)" stroke-width="0.8" stroke-linecap="round"/>
<line x1="310.3" y1="256.8" x2="328.2" y2="262.8" stroke="rgb(182,203,248)" stroke-width="0.8" stroke-linecap="round"/>
<line x1="328.2" y1="262.8" x2="346.1" y2="264.3" stroke="rgb(182,203,248)" stroke-width="0.8" stroke-linecap="round"/>
<line x1="346.1" y1="264.3" x2="363.9" y2="269.4" stroke="rgb(182,203,248)" stroke-width="0.8" stroke-linecap="round"/>
<line x1="363.9" y1="269.4" x2="381.8" y2="267.9" stroke="rgb(182,203,248)" stroke-width="0.8" stroke-linecap="round"/>
<line x1="381.8" y1="267.9" x2="399.7" y2="273.7" stroke="rgb(182,203,248)" stroke-width="0.8" stroke-linecap="round"/>
<line x1="399.7" y1="273.7" x2="417.6" y2="283.7" stroke="rgb(182,203,248)" stroke-width="0.8" stroke-linecap="round"/>
<line x1="417.6" y1="283.7" x2="435.5" y2="287.6" stroke="rgb(182,203,248)" stroke-width="0.8" stroke-linecap="round"/>
<line x1="435.5" y1="287.6" x2="453.4" y2="285.1" stroke="rgb(182,203,248)" stroke-width="0.8" stroke-linecap="round"/>
<line x1="453.4" y1="285.1" x2="471.3" y2="240.9" stroke="rgb(182,203,248)" stroke-width="0.8" stroke-linecap="round"/>
<line x1="471.3" y1="240.9" x2="489.1" y2="277.5" stroke="rgb(182,203,248)" stroke-width="0.8" stroke-linecap="round"/>
<line x1="489.1" y1="277.5" x2="507.0" y2="280.3" stroke="rgb(182,203,248)" stroke-width="0.8" stroke-linecap="round"/>
<line x1="507.0" y1="280.3" x2="524.9" y2="274.1" stroke="rgb(182,203,248)" stroke-width="0.8" stroke-linecap="round"/>
<line x1="524.9" y1="274.1" x2="542.8" y2="282.2" stroke="rgb(182,203,248)" stroke-width="0.8" stroke-linecap="round"/>
<line x1="542.8" y1="282.2" x2="560.7" y2="280.5" stroke="rgb(182,203,248)" stroke-width="0.8" stroke-linecap="round"/>
<line x1="560.7" y1="280.5" x2="578.6" y2="282.2" stroke="rgb(182,203,248)" stroke-width="0.8" stroke-linecap="round"/>
<line x1="578.6" y1="282.2" x2="596.5" y2="281.8" stroke="rgb(182,203,248)" stroke-width="0.8" stroke-linecap="round"/>
<line x1="596.5" y1="281.8" x2="614.3" y2="275.2" stroke="rgb(182,203,248)" stroke-width="0.8" stroke-linecap="round"/>
<line x1="614.3" y1="275.2" x2="632.2" y2="285.6" stroke="rgb(182,203,248)" stroke-width="0.8" stroke-linecap="round"/>
<line x1="632.2" y1="285.6" x2="650.1" y2="285.0" stroke="rgb(182,203,248)" stroke-width="0.8" stroke-linecap="round"/>
<line x1="650.1" y1="285.0" x2="668.0" y2="282.8" stroke="rgb(182,203,248)" stroke-width="0.8" stroke-linecap="round"/>
<line x1="42.0" y1="64.7" x2="59.9" y2="225.1" stroke="rgb(37,99,235)" stroke-width="1.8" stroke-linecap="round"/>
<line x1="59.9" y1="225.1" x2="77.8" y2="228.0" stroke="rgb(37,99,235)" stroke-width="1.8" stroke-linecap="round"/>
<line x1="77.8" y1="228.0" x2="95.7" y2="227.3" stroke="rgb(37,99,235)" stroke-width="1.8" stroke-linecap="round"/>
<line x1="95.7" y1="227.3" x2="113.5" y2="229.5" stroke="rgb(37,99,235)" stroke-width="1.8" stroke-linecap="round"/>
<line x1="113.5" y1="229.5" x2="131.4" y2="233.4" stroke="rgb(37,99,235)" stroke-width="1.8" stroke-linecap="round"/>
<line x1="131.4" y1="233.4" x2="149.3" y2="253.8" stroke="rgb(37,99,235)" stroke-width="1.8" stroke-linecap="round"/>
<line x1="149.3" y1="253.8" x2="167.2" y2="248.6" stroke="rgb(37,99,235)" stroke-width="1.8" stroke-linecap="round"/>
<line x1="167.2" y1="248.6" x2="185.1" y2="250.3" stroke="rgb(37,99,235)" stroke-width="1.8" stroke-linecap="round"/>
<line x1="185.1" y1="250.3" x2="203.0" y2="266.7" stroke="rgb(37,99,235)" stroke-width="1.8" stroke-linecap="round"/>
<line x1="203.0" y1="266.7" x2="220.9" y2="276.2" stroke="rgb(37,99,235)" stroke-width="1.8" stroke-linecap="round"/>
<line x1="220.9" y1="276.2" x2="238.7" y2="274.4" stroke="rgb(37,99,235)" stroke-width="1.8" stroke-linecap="round"/>
<line x1="238.7" y1="274.4" x2="256.6" y2="164.1" stroke="rgb(37,99,235)" stroke-width="1.8" stroke-linecap="round"/>
<line x1="256.6" y1="164.1" x2="274.5" y2="253.0" stroke="rgb(37,99,235)" stroke-width="1.8" stroke-linecap="round"/>
<line x1="274.5" y1="253.0" x2="292.4" y2="253.4" stroke="rgb(37,99,235)" stroke-width="1.8" stroke-linecap="round"/>
<line x1="292.4" y1="253.4" x2="310.3" y2="257.9" stroke="rgb(37,99,235)" stroke-width="1.8" stroke-linecap="round"/>
<line x1="310.3" y1="257.9" x2="328.2" y2="262.1" stroke="rgb(37,99,235)" stroke-width="1.8" stroke-linecap="round"/>
<line x1="328.2" y1="262.1" x2="346.1" y2="264.3" stroke="rgb(37,99,235)" stroke-width="1.8" stroke-linecap="round"/>
<line x1="346.1" y1="264.3" x2="363.9" y2="270.2" stroke="rgb(37,99,235)" stroke-width="1.8" stroke-linecap="round"/>
<line x1="363.9" y1="270.2" x2="381.8" y2="267.9" stroke="rgb(37,99,235)" stroke-width="1.8" stroke-linecap="round"/>
<line x1="381.8" y1="267.9" x2="399.7" y2="274.2" stroke="rgb(37,99,235)" stroke-width="1.8" stroke-linecap="round"/>
<line x1="399.7" y1="274.2" x2="417.6" y2="284.2" stroke="rgb(37,99,235)" stroke-width="1.8" stroke-linecap="round"/>
<line x1="417.6" y1="284.2" x2="435.5" y2="287.6" stroke="rgb(37,99,235)" stroke-width="1.8" stroke-linecap="round"/>
<line x1="435.5" y1="287.6" x2="453.4" y2="285.7" stroke="rgb(37,99,235)" stroke-width="1.8" stroke-linecap="round"/>
<line x1="453.4" y1="285.7" x2="471.3" y2="241.0" stroke="rgb(37,99,235)" stroke-width="1.8" stroke-linecap="round"/>
<line x1="471.3" y1="241.0" x2="489.1" y2="277.5" stroke="rgb(37,99,235)" stroke-width="1.8" stroke-linecap="round"/>
<line x1="489.1" y1="277.5" x2="507.0" y2="280.6" stroke="rgb(37,99,235)" stroke-width="1.8" stroke-linecap="round"/>
<line x1="507.0" y1="280.6" x2="524.9" y2="274.5" stroke="rgb(37,99,235)" stroke-width="1.8" stroke-linecap="round"/>
<line x1="524.9" y1="274.5" x2="542.8" y2="282.2" stroke="rgb(37,99,235)" stroke-width="1.8" stroke-linecap="round"/>
<line x1="542.8" y1="282.2" x2="560.7" y2="281.7" stroke="rgb(37,99,235)" stroke-width="1.8" stroke-linecap="round"/>
<line x1="560.7" y1="281.7" x2="578.6" y2="282.2" stroke="rgb(37,99,235)" stroke-width="1.8" stroke-linecap="round"/>
<line x1="578.6" y1="282.2" x2="596.5" y2="281.8" stroke="rgb(37,99,235)" stroke-width="1.8" stroke-linecap="round"/>
<line x1="596.5" y1="281.8" x2="614.3" y2="275.2" stroke="rgb(37,99,235)" stroke-width="1.8" stroke-linecap="round"/>
<line x1="614.3" y1="275.2" x2="632.2" y2="285.6" stroke="rgb(37,99,235)" stroke-width="1.8" stroke-linecap="round"/>
<line x1="632.2" y1="285.6" x2="650.1" y2="288.0" stroke="rgb(37,99,235)" stroke-width="1.8" stroke-linecap="round"/>
<line x1="650.1" y1="288.0" x2="668.0" y2="282.6" stroke="rgb(37,99,235)" stroke-width="1.8" stroke-linecap="round"/>
<text x="673.0" y="282.6" font-size="8.0" fill="rgb(37,99,235)" text-anchor="start" dominant-baseline="middle">uk</text>
</svg>
