<svg xmlns="http://www.w3.org/2000/svg" width="720" height="320" viewBox="0 0 720 320" font-family="Noto Sans, DejaVu Sans, Arial, sans-serif">
<rect x="0.0" y="0.0" width="720.0" height="320.0" fill="rgb(255,255,255)"/>
<text x="12.0" y="14.0" font-size="10.0" fill="rgb(17,24,39)" text-anchor="start" dominant-baseline="middle">English as a second language; TOEFL; IELTS — Частка переглядів теми, індекс (перші 12 міс. = 100). Тонка лінія — зі сплесками.</text>
<rect x="363.9" y="32.0" width="89.4" height="266.0" fill="rgb(243,244,246)"/>
<text x="408.7" y="38.0" font-size="6.0" fill="rgb(107,114,128)" text-anchor="middle" dominant-baseline="middle">перекласифікація ботів 2025</text>
<line x1="42.0" y1="298.0" x2="668.0" y2="298.0" stroke="rgb(229,231,235)" stroke-width="0.5" stroke-linecap="round"/>
<text x="38.0" y="298.0" font-size="7.0" fill="rgb(107,114,128)" text-anchor="end" dominant-baseline="middle">0</text>
<line x1="42.0" y1="244.8" x2="668.0" y2="244.8" stroke="rgb(229,231,235)" stroke-width="0.5" stroke-linecap="round"/>
<text x="38.0" y="244.8" font-size="7.0" fill="rgb(107,114,128)" text-anchor="end" dominant-baseline="middle">50</text>
<line x1="42.0" y1="191.6" x2="668.0" y2="191.6" stroke="rgb(229,231,235)" stroke-width="0.5" stroke-linecap="round"/>
<text x="38.0" y="191.6" font-size="7.0" fill="rgb(107,114,128)" text-anchor="end" dominant-baseline="middle">100</text>
<line x1="42.0" y1="138.4" x2="668.0" y2="138.4" stroke="rgb(229,231,235)" stroke-width="0.5" stroke-linecap="round"/>
<text x="38.0" y="138.4" font-size="7.0" fill="rgb(107,114,128)" text-anchor="end" dominant-baseline="middle">150</text>
<line x1="42.0" y1="85.2" x2="668.0" y2="85.2" stroke="rgb(229,231,235)" stroke-width="0.5" stroke-linecap="round"/>
<text x="38.0" y="85.2" font-size="7.0" fill="rgb(107,114,128)" text-anchor="end" dominant-baseline="middle">200</text>
<line x1="42.0" y1="32.0" x2="668.0" y2="32.0" stroke="rgb(229,231,235)" stroke-width="0.5" stroke-linecap="round"/>
<text x="38.0" y="32.0" font-size="7.0" fill="rgb(107,114,128)" text-anchor="end" dominant-baseline="middle">250</text>
<line x1="42.0" y1="191.6" x2="668.0" y2="191.6" stroke="rgb(107,114,128)" stroke-width="0.6" stroke-linecap="round"/>
<line x1="42.0" y1="298.0" x2="42.0" y2="301.0" stroke="rgb(107,114,128)" stroke-width="0.5" stroke-linecap="round"/>
<text x="42.0" y="307.0" font-size="6.5" fill="rgb(107,114,128)" text-anchor="middle" dominant-baseline="middle">2023-09</text>
<line x1="113.5" y1="298.0" x2="113.5" y2="301.0" stroke="rgb(107,114,128)" stroke-width="0.5" stroke-linecap="round"/>
<text x="113.5" y="307.0" font-size="6.5" fill="rgb(107,114,128)" text-anchor="middle" dominant-baseline="middle">2024-01</text>
<line x1="328.2" y1="298.0" x2="328.2" y2="301.0" stroke="rgb(107,114,128)" stroke-width="0.5" stroke-linecap="round"/>
<text x="328.2" y="307.0" font-size="6.5" fill="rgb(107,114,128)" text-anchor="middle" dominant-baseline="middle">2025-01</text>
<line x1="542.8" y1="298.0" x2="542.8" y2="301.0" stroke="rgb(107,114,128)" stroke-width="0.5" stroke-linecap="round"/>
<text x="542.8" y="307.0" font-size="6.5" fill="rgb(107,114,128)" text-anchor="middle" dominant-baseline="middle">2026-01</text>
<line x1="668.0" y1="298.0" x2="668.0" y2="301.0" stroke="rgb(107,114,128)" stroke-width="0.5" stroke-linecap="round"/>
<text x="668.0" y="307.0" font-size="6.5" fill="rgb(107,114,128)" text-anchor="middle" dominant-baseline="middle">2026-08</text>
<line x1="42.0" y1="177.1" x2="59.9" y2="199.3" stroke="rgb(182,203,248)" stroke-width="0.8" stroke-linecap="round"/>
<line x1="59.9" y1="199.3" x2="77.8" y2="203.0" stroke="rgb(182,203,248)" stroke-width="0.8" stroke-linecap="round"/>
<line x1="77.8" y1="203.0" x2="95.7" y2="210.0" stroke="rgb(182,203,248)" stroke-width="0.8" stroke-linecap="round"/>
<line x1="95.7" y1="210.0" x2="113.5" y2="180.0" stroke="rgb(182,203,248)" stroke-width="0.8" stroke-linecap="round"/>
<line x1="113.5" y1="180.0" x2="131.4" y2="199.8" stroke="rgb(182,203,248)" stroke-width="0.8" stroke-linecap="round"/>
<line x1="131.4" y1="199.8" x2="149.3" y2="207.6" stroke="rgb(182,203,248)" stroke-width="0.8" stroke-linecap="round"/>
<line x1="149.3" y1="207.6" x2="167.2" y2="179.6" stroke="rgb(182,203,248)" stroke-width="0.8" stroke-linecap="round"/>
<line x1="167.2" y1="179.6" x2="185.1" y2="171.1" stroke="rgb(182,203,248)" stroke-width="0.8" stroke-linecap="round"/>
<line x1="185.1" y1="171.1" x2="203.0" y2="169.2" stroke="rgb(182,203,248)" stroke-width="0.8" stroke-linecap="round"/>
<line x1="203.0" y1="169.2" x2="220.9" y2="187.3" stroke="rgb(182,203,248)" stroke-width="0.8" stroke-linecap="round"/>
<line x1="220.9" y1="187.3" x2="238.7" y2="197.6" stroke="rgb(182,203,248)" stroke-width="0.8" stroke-linecap="round"/>
<line x1="238.7" y1="197.6" x2="256.6" y2="195.0" stroke="rgb(182,203,248)" stroke-width="0.8" stroke-linecap="round"/>
<line x1="256.6" y1="195.0" x2="274.5" y2="219.9" stroke="rgb(182,203,248)" stroke-width="0.8" stroke-linecap="round"/>
<line x1="274.5" y1="219.9" x2="292.4" y2="216.4" stroke="rgb(182,203,248)" stroke-width="0.8" stroke-linecap="round"/>
<line x1="292.4" y1="216.4" x2="310.3" y2="218.8" stroke="rgb(182,203,248)" stroke-width="0.8" stroke-linecap="round"/>
<line x1="310.3" y1="218.8" x2="328.2" y2="194.8" stroke="rgb(182,203,248)" stroke-width="0.8" stroke-linecap="round"/>
<line x1="328.2" y1="194.8" x2="346.1" y2="190.6" stroke="rgb(182,203,248)" stroke-width="0.8" stroke-linecap="round"/>
<line x1="346.1" y1="190.6" x2="363.9" y2="185.6" stroke="rgb(182,203,248)" stroke-width="0.8" stroke-linecap="round"/>
<line x1="363.9" y1="185.6" x2="381.8" y2="207.5" stroke="rgb(182,203,248)" stroke-width="0.8" stroke-linecap="round"/>
<line x1="381.8" y1="207.5" x2="399.7" y2="217.5" stroke="rgb(182,203,248)" stroke-width="0.8" stroke-linecap="round"/>
<line x1="399.7" y1="217.5" x2="417.6" y2="190.1" stroke="rgb(182,203,248)" stroke-width="0.8" stroke-linecap="round"/>
<line x1="417.6" y1="190.1" x2="435.5" y2="239.6" stroke="rgb(182,203,248)" stroke-width="0.8" stroke-linecap="round"/>
<line x1="435.5" y1="239.6" x2="453.4" y2="245.3" stroke="rgb(182,203,248)" stroke-width="0.8" stroke-linecap="round"/>
<line x1="453.4" y1="245.3" x2="471.3" y2="235.9" stroke="rgb(182,203,248)" stroke-width="0.8" stroke-linecap="round"/>
<line x1="471.3" y1="235.9" x2="489.1" y2="251.1" stroke="rgb(182,203,248)" stroke-width="0.8" stroke-linecap="round"/>
<line x1="489.1" y1="251.1" x2="507.0" y2="246.3" stroke="rgb(182,203,248)" stroke-width="0.8" stroke-linecap="round"/>
<line x1="507.0" y1="246.3" x2="524.9" y2="246.1" stroke="rgb(182,203,248)" stroke-width="0.8" stroke-linecap="round"/>
<line x1="524.9" y1="246.1" x2="542.8" y2="245.6" stroke="rgb(182,203,248)" stroke-width="0.8" stroke-linecap="round"/>
<line x1="542.8" y1="245.6" x2="560.7" y2="243.7" stroke="rgb(182,203,248)" stroke-width="0.8" stroke-linecap="round"/>
<line x1="560.7" y1="243.7" x2="578.6" y2="251.8" stroke="rgb(182,203,248)" stroke-width="0.8" stroke-linecap="round"/>
<line x1="578.6" y1="251.8" x2="596.5" y2="250.3" stroke="rgb(182,203,248)" stroke-width="0.8" stroke-linecap="round"/>
<line x1="596.5" y1="250.3" x2="614.3" y2="266.3" stroke="rgb(182,203,248)" stroke-width="0.8" stroke-linecap="round"/>
<line x1="614.3" y1="266.3" x2="632.2" y2="247.8" stroke="rgb(182,203,248)" stroke-width="0.8" stroke-linecap="round"/>
<line x1="632.2" y1="247.8" x2="650.1" y2="264.6" stroke="rgb(182,203,248)" stroke-width="0.8" stroke-linecap="round"/>
<line x1="650.1" y1="264.6" x2="668.0" y2="266.4" stroke="rgb(182,203,248)" stroke-width="0.8" stroke-linecap="round"/>
<line x1="42.0" y1="180.1" x2="59.9" y2="199.3" stroke="rgb(37,99,235)" stroke-width="1.8" stroke-linecap="round"/>
<line x1="59.9" y1="199.3" x2="77.8" y2="203.0" stroke="rgb(37,99,235)" stroke-width="1.8" stroke-linecap="round"/>
<line x1="77.8" y1="203.0" x2="95.7" y2="210.0" stroke="rgb(37,99,235)" stroke-width="1.8" stroke-linecap="round"/>
<line x1="95.7" y1="210.0" x2="113.5" y2="182.2" stroke="rgb(37,99,235)" stroke-width="1.8" stroke-linecap="round"/>
<line x1="113.5" y1="182.2" x2="131.4" y2="202.8" stroke="rgb(37,99,235)" stroke-width="1.8" stroke-linecap="round"/>
<line x1="131.4" y1="202.8" x2="149.3" y2="208.3" stroke="rgb(37,99,235)" stroke-width="1.8" stroke-linecap="round"/>
<line x1="149.3" y1="208.3" x2="167.2" y2="182.9" stroke="rgb(37,99,235)" stroke-width="1.8" stroke-linecap="round"/>
<line x1="167.2" y1="182.9" x2="185.1" y2="173.6" stroke="rgb(37,99,235)" stroke-width="1.8" stroke-linecap="round"/>
<line x1="185.1" y1="173.6" x2="203.0" y2="169.2" stroke="rgb(37,99,235)" stroke-width="1.8" stroke-linecap="round"/>
<line x1="203.0" y1="169.2" x2="220.9" y2="188.7" stroke="rgb(37,99,235)" stroke-width="1.8" stroke-linecap="round"/>
<line x1="220.9" y1="188.7" x2="238.7" y2="199.0" stroke="rgb(37,99,235)" stroke-width="1.8" stroke-linecap="round"/>
<line x1="238.7" y1="199.0" x2="256.6" y2="193.4" stroke="rgb(37,99,235)" stroke-width="1.8" stroke-linecap="round"/>
<line x1="256.6" y1="193.4" x2="274.5" y2="218.1" stroke="rgb(37,99,235)" stroke-width="1.8" stroke-linecap="round"/>
<line x1="274.5" y1="218.1" x2="292.4" y2="217.9" stroke="rgb(37,99,235)" stroke-width="1.8" stroke-linecap="round"/>
<line x1="292.4" y1="217.9" x2="310.3" y2="219.5" stroke="rgb(37,99,235)" stroke-width="1.8" stroke-linecap="round"/>
<line x1="310.3" y1="219.5" x2="328.2" y2="194.8" stroke="rgb(37,99,235)" stroke-width="1.8" stroke-linecap="round"/>
<line x1="328.2" y1="194.8" x2="346.1" y2="195.3" stroke="rgb(37,99,235)" stroke-width="1.8" stroke-linecap="round"/>
<line x1="346.1" y1="195.3" x2="363.9" y2="187.7" stroke="rgb(37,99,235)" stroke-width="1.8" stroke-linecap="round"/>
<line x1="363.9" y1="187.7" x2="381.8" y2="208.6" stroke="rgb(37,99,235)" stroke-width="1.8" stroke-linecap="round"/>
<line x1="381.8" y1="208.6" x2="399.7" y2="219.3" stroke="rgb(37,99,235)" stroke-width="1.8" stroke-linecap="round"/>
<line x1="399.7" y1="219.3" x2="417.6" y2="192.7" stroke="rgb(37,99,235)" stroke-width="1.8" stroke-linecap="round"/>
<line x1="417.6" y1="192.7" x2="435.5" y2="238.6" stroke="rgb(37,99,235)" stroke-width="1.8" stroke-linecap="round"/>
<line x1="435.5" y1="238.6" x2="453.4" y2="244.8" stroke="rgb(37,99,235)" stroke-width="1.8" stroke-linecap="round"/>
<line x1="453.4" y1="244.8" x2="471.3" y2="237.1" stroke="rgb(37,99,235)" stroke-width="1.8" stroke-linecap="round"/>
<line x1="471.3" y1="237.1" x2="489.1" y2="252.7" stroke="rgb(37,99,235)" stroke-width="1.8" stroke-linecap="round"/>
<line x1="489.1" y1="252.7" x2="507.0" y2="249.2" stroke="rgb(37,99,235)" stroke-width="1.8" stroke-linecap="round"/>
<line x1="507.0" y1="249.2" x2="524.9" y2="246.2" stroke="rgb(37,99,235)" stroke-width="1.8" stroke-linecap="round"/>
<line x1="524.9" y1="246.2" x2="542.8" y2="245.6" stroke="rgb(37,99,235)" stroke-width="1.8" stroke-linecap="round"/>
<line x1="542.8" y1="245.6" x2="560.7" y2="246.3" stroke="rgb(37,99,235)" stroke-width="1.8" stroke-linecap="round"/>
<line x1="560.7" y1="246.3" x2="578.6" y2="253.2" stroke="rgb(37,99,235)" stroke-width="1.8" stroke-linecap="round"/>
<line x1="578.6" y1="253.2" x2="596.5" y2="250.3" stroke="rgb(37,99,235)" stroke-width="1.8" stroke-linecap="round"/>
<line x1="596.5" y1="250.3" x2="614.3" y2="267.5" stroke="rgb(37,99,235)" stroke-width="1.8" stroke-linecap="round"/>
<line x1="614.3" y1="267.5" x2="632.2" y2="261.3" stroke="rgb(37,99,235)" stroke-width="1.8" stroke-linecap="round"/>
<line x1="632.2" y1="261.3" x2="650.1" y2="264.4" stroke="rgb(37,99,235)" stroke-width="1.8" stroke-linecap="round"/>
<line x1="650.1" y1="264.4" x2="668.0" y2="267.9" stroke="rgb(37,99,235)" stroke-width="1.8" stroke-linecap="round"/>
<line x1="42.0" y1="161.8" x2="59.9" y2="188.1" stroke="rgb(243,182,182)" stroke-width="0.8" stroke-linecap="round"/>
<line x1="59.9" y1="188.1" x2="77.8" y2="186.9" stroke="rgb(243,182,182)" stroke-width="0.8" stroke-linecap="round"/>
<line x1="77.8" y1="186.9" x2="95.7" y2="219.1" stroke="rgb(243,182,182)" stroke-width="0.8" stroke-linecap="round"/>
<line x1="95.7" y1="219.1" x2="113.5" y2="197.3" stroke="rgb(243,182,182)" stroke-width="0.8" stroke-linecap="round"/>
<line x1="113.5" y1="197.3" x2="131.4" y2="181.7" stroke="rgb(243,182,182)" stroke-width="0.8" stroke-linecap="round"/>
<line x1="131.4" y1="181.7" x2="149.3" y2="179.4" stroke="rgb(243,182,182)" stroke-width="0.8" stroke-linecap="round"/>
<line x1="149.3" y1="179.4" x2="167.2" y2="186.6" stroke="rgb(243,182,182)" stroke-width="0.8" stroke-linecap="round"/>
<line x1="167.2" y1="186.6" x2="185.1" y2="174.4" stroke="rgb(243,182,182)" stroke-width="0.8" stroke-linecap="round"/>
<line x1="185.1" y1="174.4" x2="203.0" y2="187.2" stroke="rgb(243,182,182)" stroke-width="0.8" stroke-linecap="round"/>
<line x1="203.0" y1="187.2" x2="220.9" y2="196.4" stroke="rgb(243,182,182)" stroke-width="0.8" stroke-linecap="round"/>
<line x1="220.9" y1="196.4" x2="238.7" y2="214.1" stroke="rgb(243,182,182)" stroke-width="0.8" stroke-linecap="round"/>
<line x1="238.7" y1="214.1" x2="256.6" y2="181.0" stroke="rgb(243,182,182)" stroke-width="0.8" stroke-linecap="round"/>
<line x1="256.6" y1="181.0" x2="274.5" y2="199.3" stroke="rgb(243,182,182)" stroke-width="0.8" stroke-linecap="round"/>
<line x1="274.5" y1="199.3" x2="292.4" y2="202.3" stroke="rgb(243,182,182)" stroke-width="0.8" stroke-linecap="round"/>
<line x1="292.4" y1="202.3" x2="310.3" y2="215.6" stroke="rgb(243,182,182)" stroke-width="0.8" stroke-linecap="round"/>
<line x1="310.3" y1="215.6" x2="328.2" y2="198.7" stroke="rgb(243,182,182)" stroke-width="0.8" stroke-linecap="round"/>
<line x1="328.2" y1="198.7" x2="346.1" y2="201.8" stroke="rgb(243,182,182)" stroke-width="0.8" stroke-linecap="round"/>
<line x1="346.1" y1="201.8" x2="363.9" y2="201.6" stroke="rgb(243,182,182)" stroke-width="0.8" stroke-linecap="round"/>
<line x1="363.9" y1="201.6" x2="381.8" y2="230.3" stroke="rgb(243,182,182)" stroke-width="0.8" stroke-linecap="round"/>
<line x1="381.8" y1="230.3" x2="399.7" y2="247.5" stroke="rgb(243,182,182)" stroke-width="0.8" stroke-linecap="round"/>
<line x1="399.7" y1="247.5" x2="417.6" y2="211.5" stroke="rgb(243,182,182)" stroke-width="0.8" stroke-linecap="round"/>
<line x1="417.6" y1="211.5" x2="435.5" y2="214.3" stroke="rgb(243,182,182)" stroke-width="0.8" stroke-linecap="round"/>
<line x1="435.5" y1="214.3" x2="453.4" y2="235.1" stroke="rgb(243,182,182)" stroke-width="0.8" stroke-linecap="round"/>
<line x1="453.4" y1="235.1" x2="471.3" y2="217.7" stroke="rgb(243,182,182)" stroke-width="0.8" stroke-linecap="round"/>
<line x1="471.3" y1="217.7" x2="489.1" y2="217.9" stroke="rgb(243,182,182)" stroke-width="0.8" stroke-linecap="round"/>
<line x1="489.1" y1="217.9" x2="507.0" y2="241.4" stroke="rgb(243,182,182)" stroke-width="0.8" stroke-linecap="round"/>
<line x1="507.0" y1="241.4" x2="524.9" y2="238.2" stroke="rgb(243,182,182)" stroke-width="0.8" stroke-linecap="round"/>
<line x1="524.9" y1="238.2" x2="542.8" y2="223.4" stroke="rgb(243,182,182)" stroke-width="0.8" stroke-linecap="round"/>
<line x1="542.8" y1="223.4" x2="560.7" y2="227.8" stroke="rgb(243,182,182)" stroke-width="0.8" stroke-linecap="round"/>
<line x1="560.7" y1="227.8" x2="578.6" y2="249.4" stroke="rgb(243,182,182)" stroke-width="0.8" stroke-linecap="round"/>
<line x1="578.6" y1="249.4" x2="596.5" y2="236.3" stroke="rgb(243,182,182)" stroke-width="0.8" stroke-linecap="round"/>
<line x1="596.5" y1="236.3" x2="614.3" y2="240.5" stroke="rgb(243,182,182)" stroke-width="0.8" stroke-linecap="round"/>
<line x1="614.3" y1="240.5" x2="632.2" y2="245.0" stroke="rgb(243,182,182)" stroke-width="0.8" stroke-linecap="round"/>
<line x1="632.2" y1="245.0" x2="650.1" y2="233.5" stroke="rgb(243,182,182)" stroke-width="0.8" stroke-linecap="round"/>
<line x1="650.1" y1="233.5" x2="668.0" y2="250.3" stroke="rgb(243,182,182)" stroke-width="0.8" stroke-linecap="round"/>
<line x1="42.0" y1="161.1" x2="59.9" y2="193.3" stroke="rgb(220,38,38)" stroke-width="1.8" stroke-linecap="round"/>
<line x1="59.9" y1="193.3" x2="77.8" y2="192.0" stroke="rgb(220,38,38)" stroke-width="1.8" stroke-linecap="round"/>
<line x1="77.8" y1="192.0" x2="95.7" y2="222.6" stroke="rgb(220,38,38)" stroke-width="1.8" stroke-linecap="round"/>
<line x1="95.7" y1="222.6" x2="113.5" y2="200.3" stroke="rgb(220,38,38)" stroke-width="1.8" stroke-linecap="round"/>
<line x1="113.5" y1="200.3" x2="131.4" y2="183.5" stroke="rgb(220,38,38)" stroke-width="1.8" stroke-linecap="round"/>
<line x1="131.4" y1="183.5" x2="149.3" y2="178.5" stroke="rgb(220,38,38)" stroke-width="1.8" stroke-linecap="round"/>
<line x1="149.3" y1="178.5" x2="167.2" y2="186.6" stroke="rgb(220,38,38)" stroke-width="1.8" stroke-linecap="round"/>
<line x1="167.2" y1="186.6" x2="185.1" y2="178.7" stroke="rgb(220,38,38)" stroke-width="1.8" stroke-linecap="round"/>
<line x1="185.1" y1="178.7" x2="203.0" y2="191.4" stroke="rgb(220,38,38)" stroke-width="1.8" stroke-linecap="round"/>
<line x1="203.0" y1="191.4" x2="220.9" y2="194.5" stroke="rgb(220,38,38)" stroke-width="1.8" stroke-linecap="round"/>
<line x1="220.9" y1="194.5" x2="238.7" y2="216.6" stroke="rgb(220,38,38)" stroke-width="1.8" stroke-linecap="round"/>
<line x1="238.7" y1="216.6" x2="256.6" y2="182.6" stroke="rgb(220,38,38)" stroke-width="1.8" stroke-linecap="round"/>
<line x1="256.6" y1="182.6" x2="274.5" y2="200.4" stroke="rgb(220,38,38)" stroke-width="1.8" stroke-linecap="round"/>
<line x1="274.5" y1="200.4" x2="292.4" y2="204.3" stroke="rgb(220,38,38)" stroke-width="1.8" stroke-linecap="round"/>
<line x1="292.4" y1="204.3" x2="310.3" y2="220.9" stroke="rgb(220,38,38)" stroke-width="1.8" stroke-linecap="round"/>
<line x1="310.3" y1="220.9" x2="328.2" y2="200.9" stroke="rgb(220,38,38)" stroke-width="1.8" stroke-linecap="round"/>
<line x1="328.2" y1="200.9" x2="346.1" y2="201.8" stroke="rgb(220,38,38)" stroke-width="1.8" stroke-linecap="round"/>
<line x1="346.1" y1="201.8" x2="363.9" y2="201.0" stroke="rgb(220,38,38)" stroke-width="1.8" stroke-linecap="round"/>
<line x1="363.9" y1="201.0" x2="381.8" y2="232.3" stroke="rgb(220,38,38)" stroke-width="1.8" stroke-linecap="round"/>
<line x1="381.8" y1="232.3" x2="399.7" y2="247.7" stroke="rgb(220,38,38)" stroke-width="1.8" stroke-linecap="round"/>
<line x1="399.7" y1="247.7" x2="417.6" y2="211.5" stroke="rgb(220,38,38)" stroke-width="1.8" stroke-linecap="round"/>
<line x1="417.6" y1="211.5" x2="435.5" y2="216.4" stroke="rgb(220,38,38)" stroke-width="1.8" stroke-linecap="round"/>
<line x1="435.5" y1="216.4" x2="453.4" y2="239.4" stroke="rgb(220,38,38)" stroke-width="1.8" stroke-linecap="round"/>
<line x1="453.4" y1="239.4" x2="471.3" y2="218.5" stroke="rgb(220,38,38)" stroke-width="1.8" stroke-linecap="round"/>
<line x1="471.3" y1="218.5" x2="489.1" y2="219.7" stroke="rgb(220,38,38)" stroke-width="1.8" stroke-linecap="round"/>
<line x1="489.1" y1="219.7" x2="507.0" y2="242.7" stroke="rgb(220,38,38)" stroke-width="1.8" stroke-linecap="round"/>
<line x1="507.0" y1="242.7" x2="524.9" y2="241.4" stroke="rgb(220,38,38)" stroke-width="1.8" stroke-linecap="round"/>
<line x1="524.9" y1="241.4" x2="542.8" y2="223.4" stroke="rgb(220,38,38)" stroke-width="1.8" stroke-linecap="round"/>
<line x1="542.8" y1="223.4" x2="560.7" y2="229.9" stroke="rgb(220,38,38)" stroke-width="1.8" stroke-linecap="round"/>
<line x1="560.7" y1="229.9" x2="578.6" y2="248.3" stroke="rgb(220,38,38)" stroke-width="1.8" stroke-linecap="round"/>
<line x1="578.6" y1="248.3" x2="596.5" y2="238.8" stroke="rgb(220,38,38)" stroke-width="1.8" stroke-linecap="round"/>
<line x1="596.5" y1="238.8" x2="614.3" y2="240.5" stroke="rgb(220,38,38)" stroke-width="1.8" stroke-linecap="round"/>
<line x1="614.3" y1="240.5" x2="632.2" y2="247.2" stroke="rgb(220,38,38)" stroke-width="1.8" stroke-linecap="round"/>
<line x1="632.2" y1="247.2" x2="650.1" y2="235.1" stroke="rgb(220,38,38)" stroke-width="1.8" stroke-linecap="round"/>
<line x1="650.1" y1="235.1" x2="668.0" y2="252.5" stroke="rgb(220,38,38)" stroke-width="1.8" stroke-linecap="round"/>
<line x1="42.0" y1="143.6" x2="59.9" y2="186.6" stroke="rgb(177,224,194)" stroke-width="0.8" stroke-linecap="round"/>
<line x1="59.9" y1="186.6" x2="77.8" y2="198.8" stroke="rgb(177,224,194)" stroke-width="0.8" stroke-linecap="round"/>
<line x1="77.8" y1="198.8" x2="95.7" y2="208.6" stroke="rgb(177,224,194)" stroke-width="0.8" stroke-linecap="round"/>
<line x1="95.7" y1="208.6" x2="113.5" y2="206.0" stroke="rgb(177,224,194)" stroke-width="0.8" stroke-linecap="round"/>
<line x1="113.5" y1="206.0" x2="131.4" y2="192.3" stroke="rgb(177,224,194)" stroke-width="0.8" stroke-linecap="round"/>
<line x1="131.4" y1="192.3" x2="149.3" y2="210.6" stroke="rgb(177,224,194)" stroke-width="0.8" stroke-linecap="round"/>
<line x1="149.3" y1="210.6" x2="167.2" y2="212.9" stroke="rgb(177,224,194)" stroke-width="0.8" stroke-linecap="round"/>
<line x1="167.2" y1="212.9" x2="185.1" y2="197.1" stroke="rgb(177,224,194)" stroke-width="0.8" stroke-linecap="round"/>
<line x1="185.1" y1="197.1" x2="203.0" y2="193.2" stroke="rgb(177,224,194)" stroke-width="0.8" stroke-linecap="round"/>
<line x1="203.0" y1="193.2" x2="220.9" y2="177.2" stroke="rgb(177,224,194)" stroke-width="0.8" stroke-linecap="round"/>
<line x1="220.9" y1="177.2" x2="238.7" y2="178.1" stroke="rgb(177,224,194)" stroke-width="0.8" stroke-linecap="round"/>
<line x1="238.7" y1="178.1" x2="256.6" y2="189.7" stroke="rgb(177,224,194)" stroke-width="0.8" stroke-linecap="round"/>
<line x1="256.6" y1="189.7" x2="274.5" y2="226.8" stroke="rgb(177,224,194)" stroke-width="0.8" stroke-linecap="round"/>
<line x1="274.5" y1="226.8" x2="292.4" y2="206.9" stroke="rgb(177,224,194)" stroke-width="0.8" stroke-linecap="round"/>
<line x1="292.4" y1="206.9" x2="310.3" y2="197.8" stroke="rgb(177,224,194)" stroke-width="0.8" stroke-linecap="round"/>
<line x1="310.3" y1="197.8" x2="328.2" y2="189.5" stroke="rgb(177,224,194)" stroke-width="0.8" stroke-linecap="round"/>
<line x1="328.2" y1="189.5" x2="346.1" y2="150.3" stroke="rgb(177,224,194)" stroke-width="0.8" stroke-linecap="round"/>
<line x1="346.1" y1="150.3" x2="363.9" y2="200.0" stroke="rgb(177,224,194)" stroke-width="0.8" stroke-linecap="round"/>
<line x1="363.9" y1="200.0" x2="381.8" y2="206.9" stroke="rgb(177,224,194)" stroke-width="0.8" stroke-linecap="round"/>
<line x1="381.8" y1="206.9" x2="399.7" y2="197.7" stroke="rgb(177,224,194)" stroke-width="0.8" stroke-linecap="round"/>
<line x1="399.7" y1="197.7" x2="417.6" y2="95.6" stroke="rgb(177,224,194)" stroke-width="0.8" stroke-linecap="round"/>
<line x1="417.6" y1="95.6" x2="435.5" y2="67.7" stroke="rgb(177,224,194)" stroke-width="0.8" stroke-linecap="round"/>
<line x1="435.5" y1="67.7" x2="453.4" y2="81.6" stroke="rgb(177,224,194)" stroke-width="0.8" stroke-linecap="round"/>
<line x1="453.4" y1="81.6" x2="471.3" y2="73.8" stroke="rgb(177,224,194)" stroke-width="0.8" stroke-linecap="round"/>
<line x1="471.3" y1="73.8" x2="489.1" y2="88.7" stroke="rgb(177,224,194)" stroke-width="0.8" stroke-linecap="round"/>
<line x1="489.1" y1="88.7" x2="507.0" y2="147.7" stroke="rgb(177,224,194)" stroke-width="0.8" stroke-linecap="round"/>
<line x1="507.0" y1="147.7" x2="524.9" y2="156.5" stroke="rgb(177,224,194)" stroke-width="0.8" stroke-linecap="round"/>
<line x1="524.9" y1="156.5" x2="542.8" y2="161.8" stroke="rgb(177,224,194)" stroke-width="0.8" stroke-linecap="round"/>
<line x1="542.8" y1="161.8" x2="560.7" y2="141.4" stroke="rgb(177,224,194)" stroke-width="0.8" stroke-linecap="round"/>
<line x1="560.7" y1="141.4" x2="578.6" y2="203.0" stroke="rgb(177,224,194)" stroke-width="0.8" stroke-linecap="round"/>
<line x1="578.6" y1="203.0" x2="596.5" y2="221.2" stroke="rgb(177,224,194)" stroke-width="0.8" stroke-linecap="round"/>
<line x1="596.5" y1="221.2" x2="614.3" y2="213.8" stroke="rgb(177,224,194)" stroke-width="0.8" stroke-linecap="round"/>
<line x1="614.3" y1="213.8" x2="632.2" y2="191.8" stroke="rgb(177,224,194)" stroke-width="0.8" stroke-linecap="round"/>
<line x1="632.2" y1="191.8" x2="650.1" y2="205.2" stroke="rgb(177,224,194)" stroke-width="0.8" stroke-linecap="round"/>
<line x1="650.1" y1="205.2" x2="668.0" y2="220.3" stroke="rgb(177,224,194)" stroke-width="0.8" stroke-linecap="round"/>
<line x1="42.0" y1="141.7" x2="59.9" y2="187.0" stroke="rgb(22,163,74)" stroke-width="1.8" stroke-linecap="round"/>
<line x1="59.9" y1="187.0" x2="77.8" y2="199.2" stroke="rgb(22,163,74)" stroke-width="1.8" stroke-linecap="round"/>
<line x1="77.8" y1="199.2" x2="95.7" y2="206.9" stroke="rgb(22,163,74)" stroke-width="1.8" stroke-linecap="round"/>
<line x1="95.7" y1="206.9" x2="113.5" y2="207.1" stroke="rgb(22,163,74)" stroke-width="1.8" stroke-linecap="round"/>
<line x1="113.5" y1="207.1" x2="131.4" y2="191.3" stroke="rgb(22,163,74)" stroke-width="1.8" stroke-linecap="round"/>
<line x1="131.4" y1="191.3" x2="149.3" y2="208.9" stroke="rgb(22,163,74)" stroke-width="1.8" stroke-linecap="round"/>
<line x1="149.3" y1="208.9" x2="167.2" y2="213.1" stroke="rgb(22,163,74)" stroke-width="1.8" stroke-linecap="round"/>
<line x1="167.2" y1="213.1" x2="185.1" y2="197.1" stroke="rgb(22,163,74)" stroke-width="1.8" stroke-linecap="round"/>
<line x1="185.1" y1="197.1" x2="203.0" y2="193.2" stroke="rgb(22,163,74)" stroke-width="1.8" stroke-linecap="round"/>
<line x1="203.0" y1="193.2" x2="220.9" y2="175.6" stroke="rgb(22,163,74)" stroke-width="1.8" stroke-linecap="round"/>
<line x1="220.9" y1="175.6" x2="238.7" y2="178.1" stroke="rgb(22,163,74)" stroke-width="1.8" stroke-linecap="round"/>
<line x1="238.7" y1="178.1" x2="256.6" y2="191.2" stroke="rgb(22,163,74)" stroke-width="1.8" stroke-linecap="round"/>
<line x1="256.6" y1="191.2" x2="274.5" y2="227.3" stroke="rgb(22,163,74)" stroke-width="1.8" stroke-linecap="round"/>
<line x1="274.5" y1="227.3" x2="292.4" y2="207.5" stroke="rgb(22,163,74)" stroke-width="1.8" stroke-linecap="round"/>
<line x1="292.4" y1="207.5" x2="310.3" y2="200.4" stroke="rgb(22,163,74)" stroke-width="1.8" stroke-linecap="round"/>
<line x1="310.3" y1="200.4" x2="328.2" y2="191.1" stroke="rgb(22,163,74)" stroke-width="1.8" stroke-linecap="round"/>
<line x1="328.2" y1="191.1" x2="346.1" y2="149.4" stroke="rgb(22,163,74)" stroke-width="1.8" stroke-linecap="round"/>
<line x1="346.1" y1="149.4" x2="363.9" y2="200.0" stroke="rgb(22,163,74)" stroke-width="1.8" stroke-linecap="round"/>
<line x1="363.9" y1="200.0" x2="381.8" y2="208.2" stroke="rgb(22,163,74)" stroke-width="1.8" stroke-linecap="round"/>
<line x1="381.8" y1="208.2" x2="399.7" y2="197.7" stroke="rgb(22,163,74)" stroke-width="1.8" stroke-linecap="round"/>
<line x1="399.7" y1="197.7" x2="417.6" y2="94.3" stroke="rgb(22,163,74)" stroke-width="1.8" stroke-linecap="round"/>
<line x1="417.6" y1="94.3" x2="435.5" y2="67.7" stroke="rgb(22,163,74)" stroke-width="1.8" stroke-linecap="round"/>
<line x1="435.5" y1="67.7" x2="453.4" y2="81.8" stroke="rgb(22,163,74)" stroke-width="1.8" stroke-linecap="round"/>
<line x1="453.4" y1="81.8" x2="471.3" y2="73.8" stroke="rgb(22,163,74)" stroke-width="1.8" stroke-linecap="round"/>
<line x1="471.3" y1="73.8" x2="489.1" y2="88.9" stroke="rgb(22,163,74)" stroke-width="1.8" stroke-linecap="round"/>
<line x1="489.1" y1="88.9" x2="507.0" y2="147.7" stroke="rgb(22,163,74)" stroke-width="1.8" stroke-linecap="round"/>
<line x1="507.0" y1="147.7" x2="524.9" y2="155.6" stroke="rgb(22,163,74)" stroke-width="1.8" stroke-linecap="round"/>
<line x1="524.9" y1="155.6" x2="542.8" y2="160.7" stroke="rgb(22,163,74)" stroke-width="1.8" stroke-linecap="round"/>
<line x1="542.8" y1="160.7" x2="560.7" y2="141.4" stroke="rgb(22,163,74)" stroke-width="1.8" stroke-linecap="round"/>
<line x1="560.7" y1="141.4" x2="578.6" y2="203.0" stroke="rgb(22,163,74)" stroke-width="1.8" stroke-linecap="round"/>
<line x1="578.6" y1="203.0" x2="596.5" y2="222.4" stroke="rgb(22,163,74)" stroke-width="1.8" stroke-linecap="round"/>
<line x1="596.5" y1="222.4" x2="614.3" y2="220.0" stroke="rgb(22,163,74)" stroke-width="1.8" stroke-linecap="round"/>
<line x1="614.3" y1="220.0" x2="632.2" y2="191.8" stroke="rgb(22,163,74)" stroke-width="1.8" stroke-linecap="round"/>
<line x1="632.2" y1="191.8" x2="650.1" y2="205.2" stroke="rgb(22,163,74)" stroke-width="1.8" stroke-linecap="round"/>
<line x1="650.1" y1="205.2" x2="668.0" y2="224.6" stroke="rgb(22,163,74)" stroke-width="1.8" stroke-linecap="round"/>
<line x1="42.0" y1="172.2" x2="59.9" y2="197.8" stroke="rgb(242,209,172)" stroke-width="0.8" stroke-linecap="round"/>
<line x1="59.9" y1="197.8" x2="77.8" y2="196.1" stroke="rgb(242,209,172)" stroke-width="0.8" stroke-linecap="round"/>
<line x1="77.8" y1="196.1" x2="95.7" y2="187.3" stroke="rgb(242,209,172)" stroke-width="0.8" stroke-linecap="round"/>
<line x1="95.7" y1="187.3" x2="113.5" y2="190.7" stroke="rgb(242,209,172)" stroke-width="0.8" stroke-linecap="round"/>
<line x1="113.5" y1="190.7" x2="131.4" y2="196.9" stroke="rgb(242,209,172)" stroke-width="0.8" stroke-linecap="round"/>
<line x1="131.4" y1="196.9" x2="149.3" y2="185.2" stroke="rgb(242,209,172)" stroke-width="0.8" stroke-linecap="round"/>
<line x1="149.3" y1="185.2" x2="167.2" y2="196.5" stroke="rgb(242,209,172)" stroke-width="0.8" stroke-linecap="round"/>
<line x1="167.2" y1="196.5" x2="185.1" y2="199.7" stroke="rgb(242,209,172)" stroke-width="0.8" stroke-linecap="round"/>
<line x1="185.1" y1="199.7" x2="203.0" y2="178.8" stroke="rgb(242,209,172)" stroke-width="0.8" stroke-linecap="round"/>
<line x1="203.0" y1="178.8" x2="220.9" y2="184.7" stroke="rgb(242,209,172)" stroke-width="0.8" stroke-linecap="round"/>
<line x1="220.9" y1="184.7" x2="238.7" y2="202.1" stroke="rgb(242,209,172)" stroke-width="0.8" stroke-linecap="round"/>
<line x1="238.7" y1="202.1" x2="256.6" y2="208.0" stroke="rgb(242,209,172)" stroke-width="0.8" stroke-linecap="round"/>
<line x1="256.6" y1="208.0" x2="274.5" y2="229.8" stroke="rgb(242,209,172)" stroke-width="0.8" stroke-linecap="round"/>
<line x1="274.5" y1="229.8" x2="292.4" y2="216.7" stroke="rgb(242,209,172)" stroke-width="0.8" stroke-linecap="round"/>
<line x1="292.4" y1="216.7" x2="310.3" y2="211.8" stroke="rgb(242,209,172)" stroke-width="0.8" stroke-linecap="round"/>
<line x1="310.3" y1="211.8" x2="328.2" y2="234.9" stroke="rgb(242,209,172)" stroke-width="0.8" stroke-linecap="round"/>
<line x1="328.2" y1="234.9" x2="346.1" y2="219.7" stroke="rgb(242,209,172)" stroke-width="0.8" stroke-linecap="round"/>
<line x1="346.1" y1="219.7" x2="363.9" y2="214.0" stroke="rgb(242,209,172)" stroke-width="0.8" stroke-linecap="round"/>
<line x1="363.9" y1="214.0" x2="381.8" y2="222.6" stroke="rgb(242,209,172)" stroke-width="0.8" stroke-linecap="round"/>
<line x1="381.8" y1="222.6" x2="399.7" y2="231.9" stroke="rgb(242,209,172)" stroke-width="0.8" stroke-linecap="round"/>
<line x1="399.7" y1="231.9" x2="417.6" y2="188.6" stroke="rgb(242,209,172)" stroke-width="0.8" stroke-linecap="round"/>
<line x1="417.6" y1="188.6" x2="435.5" y2="187.5" stroke="rgb(242,209,172)" stroke-width="0.8" stroke-linecap="round"/>
<line x1="435.5" y1="187.5" x2="453.4" y2="203.0" stroke="rgb(242,209,172)" stroke-width="0.8" stroke-linecap="round"/>
<line x1="453.4" y1="203.0" x2="471.3" y2="204.5" stroke="rgb(242,209,172)" stroke-width="0.8" stroke-linecap="round"/>
<line x1="471.3" y1="204.5" x2="489.1" y2="224.5" stroke="rgb(242,209,172)" stroke-width="0.8" stroke-linecap="round"/>
<line x1="489.1" y1="224.5" x2="507.0" y2="248.7" stroke="rgb(242,209,172)" stroke-width="0.8" stroke-linecap="round"/>
<line x1="507.0" y1="248.7" x2="524.9" y2="241.3" stroke="rgb(242,209,172)" stroke-width="0.8" stroke-linecap="round"/>
<line x1="524.9" y1="241.3" x2="542.8" y2="243.2" stroke="rgb(242,209,172)" stroke-width="0.8" stroke-linecap="round"/>
<line x1="542.8" y1="243.2" x2="560.7" y2="247.8" stroke="rgb(242,209,172)" stroke-width="0.8" stroke-linecap="round"/>
<line x1="560.7" y1="247.8" x2="578.6" y2="227.8" stroke="rgb(242,209,172)" stroke-width="0.8" stroke-linecap="round"/>
<line x1="578.6" y1="227.8" x2="596.5" y2="247.8" stroke="rgb(242,209,172)" stroke-width="0.8" stroke-linecap="round"/>
<line x1="596.5" y1="247.8" x2="614.3" y2="253.0" stroke="rgb(242,209,172)" stroke-width="0.8" stroke-linecap="round"/>
<line x1="614.3" y1="253.0" x2="632.2" y2="226.7" stroke="rgb(242,209,172)" stroke-width="0.8" stroke-linecap="round"/>
<line x1="632.2" y1="226.7" x2="650.1" y2="215.8" stroke="rgb(242,209,172)" stroke-width="0.8" stroke-linecap="round"/>
<line x1="650.1" y1="215.8" x2="668.0" y2="239.7" stroke="rgb(242,209,172)" stroke-width="0.8" stroke-linecap="round"/>
<line x1="42.0" y1="173.9" x2="59.9" y2="197.8" stroke="rgb(217,119,6)" stroke-width="1.8" stroke-linecap="round"/>
<line x1="59.9" y1="197.8" x2="77.8" y2="196.1" stroke="rgb(217,119,6)" stroke-width="1.8" stroke-linecap="round"/>
<line x1="77.8" y1="196.1" x2="95.7" y2="186.5" stroke="rgb(217,119,6)" stroke-width="1.8" stroke-linecap="round"/>
<line x1="95.7" y1="186.5" x2="113.5" y2="189.8" stroke="rgb(217,119,6)" stroke-width="1.8" stroke-linecap="round"/>
<line x1="113.5" y1="189.8" x2="131.4" y2="202.5" stroke="rgb(217,119,6)" stroke-width="1.8" stroke-linecap="round"/>
<line x1="131.4" y1="202.5" x2="149.3" y2="188.7" stroke="rgb(217,119,6)" stroke-width="1.8" stroke-linecap="round"/>
<line x1="149.3" y1="188.7" x2="167.2" y2="196.5" stroke="rgb(217,119,6)" stroke-width="1.8" stroke-linecap="round"/>
<line x1="167.2" y1="196.5" x2="185.1" y2="202.8" stroke="rgb(217,119,6)" stroke-width="1.8" stroke-linecap="round"/>
<line x1="185.1" y1="202.8" x2="203.0" y2="177.0" stroke="rgb(217,119,6)" stroke-width="1.8" stroke-linecap="round"/>
<line x1="203.0" y1="177.0" x2="220.9" y2="183.7" stroke="rgb(217,119,6)" stroke-width="1.8" stroke-linecap="round"/>
<line x1="220.9" y1="183.7" x2="238.7" y2="203.9" stroke="rgb(217,119,6)" stroke-width="1.8" stroke-linecap="round"/>
<line x1="238.7" y1="203.9" x2="256.6" y2="208.0" stroke="rgb(217,119,6)" stroke-width="1.8" stroke-linecap="round"/>
<line x1="256.6" y1="208.0" x2="274.5" y2="229.8" stroke="rgb(217,119,6)" stroke-width="1.8" stroke-linecap="round"/>
<line x1="274.5" y1="229.8" x2="292.4" y2="217.6" stroke="rgb(217,119,6)" stroke-width="1.8" stroke-linecap="round"/>
<line x1="292.4" y1="217.6" x2="310.3" y2="211.8" stroke="rgb(217,119,6)" stroke-width="1.8" stroke-linecap="round"/>
<line x1="310.3" y1="211.8" x2="328.2" y2="234.6" stroke="rgb(217,119,6)" stroke-width="1.8" stroke-linecap="round"/>
<line x1="328.2" y1="234.6" x2="346.1" y2="220.7" stroke="rgb(217,119,6)" stroke-width="1.8" stroke-linecap="round"/>
<line x1="346.1" y1="220.7" x2="363.9" y2="215.2" stroke="rgb(217,119,6)" stroke-width="1.8" stroke-linecap="round"/>
<line x1="363.9" y1="215.2" x2="381.8" y2="223.4" stroke="rgb(217,119,6)" stroke-width="1.8" stroke-linecap="round"/>
<line x1="381.8" y1="223.4" x2="399.7" y2="235.7" stroke="rgb(217,119,6)" stroke-width="1.8" stroke-linecap="round"/>
<line x1="399.7" y1="235.7" x2="417.6" y2="189.0" stroke="rgb(217,119,6)" stroke-width="1.8" stroke-linecap="round"/>
<line x1="417.6" y1="189.0" x2="435.5" y2="187.8" stroke="rgb(217,119,6)" stroke-width="1.8" stroke-linecap="round"/>
<line x1="435.5" y1="187.8" x2="453.4" y2="202.0" stroke="rgb(217,119,6)" stroke-width="1.8" stroke-linecap="round"/>
<line x1="453.4" y1="202.0" x2="471.3" y2="205.1" stroke="rgb(217,119,6)" stroke-width="1.8" stroke-linecap="round"/>
<line x1="471.3" y1="205.1" x2="489.1" y2="224.5" stroke="rgb(217,119,6)" stroke-width="1.8" stroke-linecap="round"/>
<line x1="489.1" y1="224.5" x2="507.0" y2="248.7" stroke="rgb(217,119,6)" stroke-width="1.8" stroke-linecap="round"/>
<line x1="507.0" y1="248.7" x2="524.9" y2="241.9" stroke="rgb(217,119,6)" stroke-width="1.8" stroke-linecap="round"/>
<line x1="524.9" y1="241.9" x2="542.8" y2="243.2" stroke="rgb(217,119,6)" stroke-width="1.8" stroke-linecap="round"/>
<line x1="542.8" y1="243.2" x2="560.7" y2="249.3" stroke="rgb(217,119,6)" stroke-width="1.8" stroke-linecap="round"/>
<line x1="560.7" y1="249.3" x2="578.6" y2="227.2" stroke="rgb(217,119,6)" stroke-width="1.8" stroke-linecap="round"/>
<line x1="578.6" y1="227.2" x2="596.5" y2="250.9" stroke="rgb(217,119,6)" stroke-width="1.8" stroke-linecap="round"/>
<line x1="596.5" y1="250.9" x2="614.3" y2="253.4" stroke="rgb(217,119,6)" stroke-width="1.8" stroke-linecap="round"/>
<line x1="614.3" y1="253.4" x2="632.2" y2="228.6" stroke="rgb(217,119,6)" stroke-width="1.8" stroke-linecap="round"/>
<line x1="632.2" y1="228.6" x2="650.1" y2="215.8" stroke="rgb(217,119,6)" stroke-width="1.8" stroke-linecap="round"/>
<line x1="650.1" y1="215.8" x2="668.0" y2="239.0" stroke="rgb(217,119,6)" stroke-width="1.8" stroke-linecap="round"/>
<line x1="42.0" y1="166.3" x2="59.9" y2="167.2" stroke="rgb(219,187,248)" stroke-width="0.8" stroke-linecap="round"/>
<line x1="59.9" y1="167.2" x2="77.8" y2="203.4" stroke="rgb(219,187,248)" stroke-width="0.8" stroke-linecap="round"/>
<line x1="77.8" y1="203.4" x2="95.7" y2="199.9" stroke="rgb(219,187,248)" stroke-width="0.8" stroke-linecap="round"/>
<line x1="95.7" y1="199.9" x2="113.5" y2="181.4" stroke="rgb(219,187,248)" stroke-width="0.8" stroke-linecap="round"/>
<line x1="113.5" y1="181.4" x2="131.4" y2="206.6" stroke="rgb(219,187,248)" stroke-width="0.8" stroke-linecap="round"/>
<line x1="131.4" y1="206.6" x2="149.3" y2="174.9" stroke="rgb(219,187,248)" stroke-width="0.8" stroke-linecap="round"/>
<line x1="149.3" y1="174.9" x2="167.2" y2="189.4" stroke="rgb(219,187,248)" stroke-width="0.8" stroke-linecap="round"/>
<line x1="167.2" y1="189.4" x2="185.1" y2="184.6" stroke="rgb(219,187,248)" stroke-width="0.8" stroke-linecap="round"/>
<line x1="185.1" y1="184.6" x2="203.0" y2="196.8" stroke="rgb(219,187,248)" stroke-width="0.8" stroke-linecap="round"/>
<line x1="203.0" y1="196.8" x2="220.9" y2="196.4" stroke="rgb(219,187,248)" stroke-width="0.8" stroke-linecap="round"/>
<line x1="220.9" y1="196.4" x2="238.7" y2="210.6" stroke="rgb(219,187,248)" stroke-width="0.8" stroke-linecap="round"/>
<line x1="238.7" y1="210.6" x2="256.6" y2="228.6" stroke="rgb(219,187,248)" stroke-width="0.8" stroke-linecap="round"/>
<line x1="256.6" y1="228.6" x2="274.5" y2="234.6" stroke="rgb(219,187,248)" stroke-width="0.8" stroke-linecap="round"/>
<line x1="274.5" y1="234.6" x2="292.4" y2="232.6" stroke="rgb(219,187,248)" stroke-width="0.8" stroke-linecap="round"/>
<line x1="292.4" y1="232.6" x2="310.3" y2="227.6" stroke="rgb(219,187,248)" stroke-width="0.8" stroke-linecap="round"/>
<line x1="310.3" y1="227.6" x2="328.2" y2="224.7" stroke="rgb(219,187,248)" stroke-width="0.8" stroke-linecap="round"/>
<line x1="328.2" y1="224.7" x2="346.1" y2="239.1" stroke="rgb(219,187,248)" stroke-width="0.8" stroke-linecap="round"/>
<line x1="346.1" y1="239.1" x2="363.9" y2="203.2" stroke="rgb(219,187,248)" stroke-width="0.8" stroke-linecap="round"/>
<line x1="363.9" y1="203.2" x2="381.8" y2="256.7" stroke="rgb(219,187,248)" stroke-width="0.8" stroke-linecap="round"/>
<line x1="381.8" y1="256.7" x2="399.7" y2="247.4" stroke="rgb(219,187,248)" stroke-width="0.8" stroke-linecap="round"/>
<line x1="399.7" y1="247.4" x2="417.6" y2="231.1" stroke="rgb(219,187,248)" stroke-width="0.8" stroke-linecap="round"/>
<line x1="417.6" y1="231.1" x2="435.5" y2="246.5" stroke="rgb(219,187,248)" stroke-width="0.8" stroke-linecap="round"/>
<line x1="435.5" y1="246.5" x2="453.4" y2="261.1" stroke="rgb(219,187,248)" stroke-width="0.8" stroke-linecap="round"/>
<line x1="453.4" y1="261.1" x2="471.3" y2="259.1" stroke="rgb(219,187,248)" stroke-width="0.8" stroke-linecap="round"/>
<line x1="471.3" y1="259.1" x2="489.1" y2="248.6" stroke="rgb(219,187,248)" stroke-width="0.8" stroke-linecap="round"/>
<line x1="489.1" y1="248.6" x2="507.0" y2="272.7" stroke="rgb(219,187,248)" stroke-width="0.8" stroke-linecap="round"/>
<line x1="507.0" y1="272.7" x2="524.9" y2="273.0" stroke="rgb(219,187,248)" stroke-width="0.8" stroke-linecap="round"/>
<line x1="524.9" y1="273.0" x2="542.8" y2="274.2" stroke="rgb(219,187,248)" stroke-width="0.8" stroke-linecap="round"/>
<line x1="542.8" y1="274.2" x2="560.7" y2="271.2" stroke="rgb(219,187,248)" stroke-width="0.8" stroke-linecap="round"/>
<line x1="560.7" y1="271.2" x2="578.6" y2="279.2" stroke="rgb(219,187,248)" stroke-width="0.8" stroke-linecap="round"/>
<line x1="578.6" y1="279.2" x2="596.5" y2="275.6" stroke="rgb(219,187,248)" stroke-width="0.8" stroke-linecap="round"/>
<line x1="596.5" y1="275.6" x2="614.3" y2="276.1" stroke="rgb(219,187,248)" stroke-width="0.8" stroke-linecap="round"/>
<line x1="614.3" y1="276.1" x2="632.2" y2="272.8" stroke="rgb(219,187,248)" stroke-width="0.8" stroke-linecap="round"/>
<line x1="632.2" y1="272.8" x2="650.1" y2="275.0" stroke="rgb(219,187,248)" stroke-width="0.8" stroke-linecap="round"/>
<line x1="650.1" y1="275.0" x2="668.0" y2="278.1" stroke="rgb(219,187,248)" stroke-width="0.8" stroke-linecap="round"/>
<line x1="42.0" y1="169.1" x2="59.9" y2="166.0" stroke="rgb(147,51,234)" stroke-width="1.8" stroke-linecap="round"/>
<line x1="59.9" y1="166.0" x2="77.8" y2="206.1" stroke="rgb(147,51,234)" stroke-width="1.8" stroke-linecap="round"/>
<line x1="77.8" y1="206.1" x2="95.7" y2="199.9" stroke="rgb(147,51,234)" stroke-width="1.8" stroke-linecap="round"/>
<line x1="95.7" y1="199.9" x2="113.5" y2="181.4" stroke="rgb(147,51,234)" stroke-width="1.8" stroke-linecap="round"/>
<line x1="113.5" y1="181.4" x2="131.4" y2="208.3" stroke="rgb(147,51,234)" stroke-width="1.8" stroke-linecap="round"/>
<line x1="131.4" y1="208.3" x2="149.3" y2="174.9" stroke="rgb(147,51,234)" stroke-width="1.8" stroke-linecap="round"/>
<line x1="149.3" y1="174.9" x2="167.2" y2="198.2" stroke="rgb(147,51,234)" stroke-width="1.8" stroke-linecap="round"/>
<line x1="167.2" y1="198.2" x2="185.1" y2="187.4" stroke="rgb(147,51,234)" stroke-width="1.8" stroke-linecap="round"/>
<line x1="185.1" y1="187.4" x2="203.0" y2="198.6" stroke="rgb(147,51,234)" stroke-width="1.8" stroke-linecap="round"/>
<line x1="203.0" y1="198.6" x2="220.9" y2="197.1" stroke="rgb(147,51,234)" stroke-width="1.8" stroke-linecap="round"/>
<line x1="220.9" y1="197.1" x2="238.7" y2="212.2" stroke="rgb(147,51,234)" stroke-width="1.8" stroke-linecap="round"/>
<line x1="238.7" y1="212.2" x2="256.6" y2="228.3" stroke="rgb(147,51,234)" stroke-width="1.8" stroke-linecap="round"/>
<line x1="256.6" y1="228.3" x2="274.5" y2="238.9" stroke="rgb(147,51,234)" stroke-width="1.8" stroke-linecap="round"/>
<line x1="274.5" y1="238.9" x2="292.4" y2="237.9" stroke="rgb(147,51,234)" stroke-width="1.8" stroke-linecap="round"/>
<line x1="292.4" y1="237.9" x2="310.3" y2="227.6" stroke="rgb(147,51,234)" stroke-width="1.8" stroke-linecap="round"/>
<line x1="310.3" y1="227.6" x2="328.2" y2="227.3" stroke="rgb(147,51,234)" stroke-width="1.8" stroke-linecap="round"/>
<line x1="328.2" y1="227.3" x2="346.1" y2="238.4" stroke="rgb(147,51,234)" stroke-width="1.8" stroke-linecap="round"/>
<line x1="346.1" y1="238.4" x2="363.9" y2="203.2" stroke="rgb(147,51,234)" stroke-width="1.8" stroke-linecap="round"/>
<line x1="363.9" y1="203.2" x2="381.8" y2="258.8" stroke="rgb(147,51,234)" stroke-width="1.8" stroke-linecap="round"/>
<line x1="381.8" y1="258.8" x2="399.7" y2="251.8" stroke="rgb(147,51,234)" stroke-width="1.8" stroke-linecap="round"/>
<line x1="399.7" y1="251.8" x2="417.6" y2="229.5" stroke="rgb(147,51,234)" stroke-width="1.8" stroke-linecap="round"/>
<line x1="417.6" y1="229.5" x2="435.5" y2="247.4" stroke="rgb(147,51,234)" stroke-width="1.8" stroke-linecap="round"/>
<line x1="435.5" y1="247.4" x2="453.4" y2="262.2" stroke="rgb(147,51,234)" stroke-width="1.8" stroke-linecap="round"/>
<line x1="453.4" y1="262.2" x2="471.3" y2="260.0" stroke="rgb(147,51,234)" stroke-width="1.8" stroke-linecap="round"/>
<line x1="471.3" y1="260.0" x2="489.1" y2="249.8" stroke="rgb(147,51,234)" stroke-width="1.8" stroke-linecap="round"/>
<line x1="489.1" y1="249.8" x2="507.0" y2="274.2" stroke="rgb(147,51,234)" stroke-width="1.8" stroke-linecap="round"/>
<line x1="507.0" y1="274.2" x2="524.9" y2="274.4" stroke="rgb(147,51,234)" stroke-width="1.8" stroke-linecap="round"/>
<line x1="524.9" y1="274.4" x2="542.8" y2="276.0" stroke="rgb(147,51,234)" stroke-width="1.8" stroke-linecap="round"/>
<line x1="542.8" y1="276.0" x2="560.7" y2="274.6" stroke="rgb(147,51,234)" stroke-width="1.8" stroke-linecap="round"/>
<line x1="560.7" y1="274.6" x2="578.6" y2="279.2" stroke="rgb(147,51,234)" stroke-width="1.8" stroke-linecap="round"/>
<line x1="578.6" y1="279.2" x2="596.5" y2="277.1" stroke="rgb(147,51,234)" stroke-width="1.8" stroke-linecap="round"/>
<line x1="596.5" y1="277.1" x2="614.3" y2="277.8" stroke="rgb(147,51,234)" stroke-width="1.8" stroke-linecap="round"/>
<line x1="614.3" y1="277.8" x2="632.2" y2="272.8" stroke="rgb(147,51,234)" stroke-width="1.8" stroke-linecap="round"/>
<line x1="632.2" y1="272.8" x2="650.1" y2="274.6" stroke="rgb(147,51,234)" stroke-width="1.8" stroke-linecap="round"/>
<line x1="650.1" y1="274.6" x2="668.0" y2="277.7" stroke="rgb(147,51,234)" stroke-width="1.8" stroke-linecap="round"/>
<text x="673.0" y="267.9" font-size="8.0" fill="rgb(37,99,235)" text-anchor="start" dominant-baseline="middle">uk</text>
<text x="673.0" y="252.5" font-size="8.0" fill="rgb(220,38,38)" text-anchor="start" dominant-baseline="middle">pl</text>
<text x="673.0" y="224.6" font-size="8.0" fill="rgb(22,163,74)" text-anchor="start" dominant-baseline="middle">tr</text>
<text x="673.0" y="239.0" font-size="8.0" fill="rgb(217,119,6)" text-anchor="start" dominant-baseline="middle">vi</text>
<text x="673.0" y="277.7" font-size="8.0" fill="rgb(147,51,234)" text-anchor="start" dominant-baseline="middle">id</text>
</svg>
